<svg xmlns="http://www.w3.org/2000/svg" width="52.576" height="51.166" viewBox="0 0 52.576 51.166"><defs><style>.a{fill:#000000;}</style></defs><path class="a" d="M105.195-46.323c0,4.4,2.152,6.169,4.854,6.169a4.51,4.51,0,0,0,1.65-.263V-52.252a3.588,3.588,0,0,0-1.387-.239C107.3-52.492,105.195-50.172,105.195-46.323Z" transform="translate(-72.695 73.818)"/><path class="a" d="M128.7-65.872H93.484A8.694,8.694,0,0,0,84.8-57.193v33.8a8.693,8.693,0,0,0,8.679,8.687h35.274a8.665,8.665,0,0,0,8.623-8.7V-57.193A8.679,8.679,0,0,0,128.7-65.872ZM111.655-28.837h-4.16a.468.468,0,0,1-.5-.311c-1.53-3.156-3.084-6.312-4.686-9.707h-.048c-1.435,3.2-3.013,6.575-4.543,9.723a.458.458,0,0,1-.43.263H93.341c-.239,0-.263-.191-.143-.335l6.551-12.481L93.412-54.3a.192.192,0,0,1-.013-.273.193.193,0,0,1,.156-.062h4.112a.378.378,0,0,1,.43.263c1.506,3.156,3.028,6.408,4.471,9.588h.048c1.387-3.156,2.917-6.432,4.4-9.564.12-.191.191-.311.43-.311H111.3c.191,0,.263.143.143.335L105.1-42.082,111.8-29.219C111.918-29.028,111.846-28.837,111.655-28.837Zm16.33-1.052a14.25,14.25,0,0,1-6.121,1.387c-5.188.024-8.894-3.18-8.894-9.683a9.351,9.351,0,0,1,8.759-9.908c.276-.018.553-.022.829-.014a10.809,10.809,0,0,1,1.243.048V-54.4a.239.239,0,0,1,.239-.239h3.778c.191,0,.239.072.239.191v21.949a16.928,16.928,0,0,0,.12,2.343C128.176-30.008,128.128-29.961,127.985-29.889Z" transform="translate(-84.805 65.872)"/></svg>