<svg xmlns="http://www.w3.org/2000/svg" width="52.6" height="52.476" viewBox="0 0 52.6 52.476"><defs><style>.a{fill:#b72727;}.b{fill:#2b2b2b;}</style></defs><g transform="translate(-1757.725 -1364.959)"><rect class="a" width="52.6" height="52.476" rx="9" transform="translate(1757.725 1364.959)"/><path class="b" d="M0,31.046a4.843,4.843,0,0,1,1.94-3.387,19.417,19.417,0,0,1,3.912-2.815l.477.7a19.875,19.875,0,0,0-2.878,2.624A8,8,0,0,0,1.59,31.014q2.767-.859,8.429-12.055a50.671,50.671,0,0,0,3.276-8.3,21.832,21.832,0,0,1-1.05-6.425q0-3.658,1.495-3.658A6.634,6.634,0,0,1,14.822.64a1.143,1.143,0,0,1,.652.413,1.626,1.626,0,0,1,.3,1.081,3.955,3.955,0,0,1-.1.891l-.859-.032a1.99,1.99,0,0,0-.541-1.3A4.551,4.551,0,0,0,13.9,3.884a19.413,19.413,0,0,0,.286,2.99q.1-.573.27-1.7t.3-1.7l.827.1A47.193,47.193,0,0,1,15.14,10.5a19.515,19.515,0,0,0,2.751,5.534,14.482,14.482,0,0,0,4.532,3.785,36.878,36.878,0,0,1,3.69-.223q5.661,0,5.661,2.226a2.14,2.14,0,0,1-.159.763l-.1-.032q-.159,1.336-2.131,1.336a16.773,16.773,0,0,1-7.633-2.29A52.732,52.732,0,0,0,9.383,24.208q-4.675,8.174-7.474,8.174a1.614,1.614,0,0,1-.445-.064,2.866,2.866,0,0,1-.4-.143q-.175-.08-.429-.223t-.382-.207a.946.946,0,0,1-.254-.7Zm10.114-8.111a50.378,50.378,0,0,1,9.478-2.7,15.859,15.859,0,0,1-5.216-6.647A47.17,47.17,0,0,1,10.114,22.936Zm15.458-1.59a13.443,13.443,0,0,0,4.516,1.113,1.9,1.9,0,0,0,.7-.1q0-1.018-4.612-1.018Z" transform="translate(1769.233 1373.861)"/></g></svg>