<svg xmlns="http://www.w3.org/2000/svg" width="52.6" height="51.166" viewBox="0 0 52.6 51.166"><defs><style>.a{fill:#f7931e;}</style></defs><path class="a" d="M-44.982-65.872H-78.409A9.586,9.586,0,0,0-88-56.286v31.992a9.586,9.586,0,0,0,9.586,9.588h33.427a9.588,9.588,0,0,0,9.588-9.588V-56.286A9.587,9.587,0,0,0-44.982-65.872ZM-56.551-29.164h-3.943c-.2,0-.319-.048-.354-.206l-1.972-7.208h-7.662l-1.892,7.166c-.041.2-.12.244-.354.244h-3.507c-.239,0-.274-.078-.239-.354l6.79-23.777a7.433,7.433,0,0,0,.234-1.992c0-.159.08-.239.2-.239h5c.159,0,.239.043.277.239l7.616,25.808C-56.312-29.283-56.352-29.164-56.551-29.164Zm8.081-.266c0,.2-.038.277-.276.277h-3.7c-.239,0-.319-.12-.319-.311v-18.86l-.019,0c0-.191.078-.263.277-.263h3.754c.21,0,.287.08.287.277Zm.306-24.327a2.29,2.29,0,0,1-2.12,2.45,2.344,2.344,0,0,1-.367,0,2.247,2.247,0,0,1-2.418-2.064,2.192,2.192,0,0,1,0-.383h.01a2.447,2.447,0,0,1,2.383-2.509,2.448,2.448,0,0,1,2.509,2.385Z" transform="translate(87.995 65.872)"/><path class="a" d="M-73.6-56.984c-.512,2.8-1.774,7.531-2.762,11.237h5.644c-.669-2.644-2.247-8.435-2.84-11.237Z" transform="translate(94.902 71.151)"/></svg>