<svg xmlns="http://www.w3.org/2000/svg" width="49" height="49" viewBox="0 0 49 49"><defs><style>.a{fill:none;stroke:#707070;stroke-width:3px;}</style></defs><g transform="translate(-338.5 -243.5)"><rect class="a" width="19" height="19" rx="3" transform="translate(386 245) rotate(90)"/><g transform="translate(340 253.765)"><path class="a" d="M3,0H16a3,3,0,0,1,3,3V18a0,0,0,0,1,0,0H0a0,0,0,0,1,0,0V3A3,3,0,0,1,3,0Z" transform="translate(0 0.235)"/><path class="a" d="M3,0H18a0,0,0,0,1,0,0V19a0,0,0,0,1,0,0H3a3,3,0,0,1-3-3V3A3,3,0,0,1,3,0Z" transform="translate(37 37.235) rotate(180)"/><path class="a" d="M3,0H19a0,0,0,0,1,0,0V19a0,0,0,0,1,0,0H0a0,0,0,0,1,0,0V3A3,3,0,0,1,3,0Z" transform="translate(0 37.235) rotate(-90)"/></g></g></svg>