<svg xmlns="http://www.w3.org/2000/svg" width="43.13" height="43.13" viewBox="0 0 43.13 43.13"><defs><style>.a{fill:#e4e4e4;}</style></defs><path class="a" d="M9.061,27.253a4.53,4.53,0,1,1-4.529-4.529H9.061v4.529Zm2.284,0a4.53,4.53,0,0,1,9.061,0V38.6a4.53,4.53,0,1,1-9.061,0V27.253Zm4.53-18.192a4.53,4.53,0,1,1,4.53-4.529V9.061h-4.53Zm0,2.284a4.53,4.53,0,1,1,0,9.061H4.532a4.53,4.53,0,1,1,0-9.061H15.875Zm18.19,4.53a4.532,4.532,0,1,1,4.532,4.53H34.065Zm-2.279,0a4.531,4.531,0,0,1-9.063,0V4.532a4.531,4.531,0,1,1,9.063,0Zm-4.534,18.19A4.532,4.532,0,1,1,22.724,38.6V34.065Zm0-2.279a4.531,4.531,0,0,1,0-9.063H38.6a4.531,4.531,0,1,1,0,9.063Z"/></svg>