<svg xmlns="http://www.w3.org/2000/svg" xmlns:xlink="http://www.w3.org/1999/xlink" width="77.366" height="87.483" viewBox="0 0 77.366 87.483"><defs><style>.a{fill:#ebebeb;}.b{clip-path:url(#a);}</style><clipPath id="a"><path class="a" d="M0,49.291H77.366V-38.192H0Z" transform="translate(0 38.192)"/></clipPath></defs><g transform="translate(0 38.192)"><g class="b" transform="translate(0 -38.192)"><g transform="translate(0 0)"><path class="a" d="M39.7,20.794a6.871,6.871,0,0,0-6.906,6.833H31.415V22.162a6.907,6.907,0,0,0-13.812,0V27.63H16.221V-7.912a8.243,8.243,0,0,0-8.287-8.2,8.245,8.245,0,0,0-8.287,8.2V27.63H-2.7L-14.743-2.707A8.316,8.316,0,0,0-25.466-7.392,8.175,8.175,0,0,0-30.2,3.221l.027.069,12.908,32.522-5.367,4.251a6.783,6.783,0,0,0-1.681,8.727l11.05,19.138a6.92,6.92,0,0,0,6,3.443H34.173A6.89,6.89,0,0,0,40.9,66.1l5.527-23.236a6.812,6.812,0,0,0,.183-1.567V27.632a6.869,6.869,0,0,0-6.9-6.837Z" transform="translate(30.761 16.112)"/></g></g></g></svg>