<svg xmlns="http://www.w3.org/2000/svg" xmlns:xlink="http://www.w3.org/1999/xlink" width="120.224" height="39.839" viewBox="0 0 120.224 39.839"><defs><style>.a{fill:none;}.b{clip-path:url(#a);}</style><clipPath id="a"><rect class="a" width="120.224" height="39.839"/></clipPath></defs><g transform="translate(-223.236 -1367.875)"><g transform="translate(223.236 1367.875)"><g class="b" transform="translate(0 0)"><path d="M119.622,2.49c-4.554-.652-9.093-1.416-13.657-1.98A86.408,86.408,0,0,0,85.572.7a98.753,98.753,0,0,0-19.8,4.523,14.8,14.8,0,0,1-4.429.72A23.321,23.321,0,0,1,53.224,4.86,95.228,95.228,0,0,0,27.709.107,92.162,92.162,0,0,0,15.63.365,128.943,128.943,0,0,0,0,2.606c.026.475.039.9.076,1.327C.192,5.271.405,6.608.413,7.945a1.877,1.877,0,0,0,1.364,2.106,3.322,3.322,0,0,1,.915.563,3.789,3.789,0,0,1,1.679,2.8c.223,2.292.521,4.575.817,6.855a31.485,31.485,0,0,0,2.2,8.465,17.242,17.242,0,0,0,10.3,9.369,30.949,30.949,0,0,0,15.765,1.225c9.222-1.392,15.736-6.453,19.244-15.161,1.379-3.421,2.588-6.91,3.823-10.387A1.552,1.552,0,0,1,58.1,12.6q2.085-.027,4.168.022A1.434,1.434,0,0,1,63.685,13.7c1.348,3.716,2.66,7.447,4.145,11.11A22.716,22.716,0,0,0,82.792,38.437a32.191,32.191,0,0,0,18.117.2,18.169,18.169,0,0,0,10.377-7.064,21.24,21.24,0,0,0,3.322-8.812c.551-3.063.908-6.165,1.249-9.262a4.048,4.048,0,0,1,2.156-3.188c.43-.259.9-.461,1.317-.737a.861.861,0,0,0,.371-.537c.189-1.933.334-3.871.517-5.805.043-.479-.107-.67-.6-.74M45.872,29.132A18.041,18.041,0,0,1,32.96,36.947a26.489,26.489,0,0,1-12.234-.853,15.942,15.942,0,0,1-8.24-5.987,20.041,20.041,0,0,1-2.671-6.483A31.636,31.636,0,0,1,8.825,12a6.554,6.554,0,0,1,1.188-2.8,11.729,11.729,0,0,1,8.3-5.047c2.863-.417,5.768-.553,8.649-.813l.019.185A62,62,0,0,1,40.776,4.877a26.48,26.48,0,0,1,4.83,1.8,7.451,7.451,0,0,1,4.459,6.731,25.087,25.087,0,0,1-4.193,15.72ZM111.6,14.311a36.205,36.205,0,0,1-2.424,13.082,14.634,14.634,0,0,1-7.555,7.834,22.305,22.305,0,0,1-12.142,1.927,24.383,24.383,0,0,1-6.043-1.168A18.51,18.51,0,0,1,71.587,23.377,29.434,29.434,0,0,1,70.11,14.33a8.274,8.274,0,0,1,5.029-7.959,23.42,23.42,0,0,1,8.3-2.2c3.99-.313,7.994-.49,11.995-.59a27.347,27.347,0,0,1,8.258.986A12.256,12.256,0,0,1,108.6,7.317c2.267,2.054,3.384,4.56,3,6.994Z" transform="translate(0 0)"/></g></g></g></svg>