<svg xmlns="http://www.w3.org/2000/svg" width="24.618" height="24.003" viewBox="0 0 24.618 24.003"><defs><style>.a{fill:#ebebeb;}</style></defs><path class="a" d="M8.234,19.889c0,.1-.114.179-.258.179-.164.015-.278-.065-.278-.179s.114-.179.258-.179S8.234,19.775,8.234,19.889ZM6.69,19.666c-.035.1.065.213.213.243a.233.233,0,0,0,.308-.1c.03-.1-.065-.213-.213-.258A.255.255,0,0,0,6.69,19.666Zm2.194-.084c-.144.035-.243.129-.228.243s.144.164.293.129.243-.129.228-.228S9.028,19.567,8.884,19.582ZM12.15.562A11.9,11.9,0,0,0,0,12.673,12.443,12.443,0,0,0,8.413,24.545c.635.114.859-.278.859-.6s-.015-2.005-.015-3.047c0,0-3.474.744-4.2-1.479,0,0-.566-1.444-1.38-1.817,0,0-1.137-.779.079-.764a2.62,2.62,0,0,1,1.916,1.281,2.624,2.624,0,0,0,3.618,1.037,2.759,2.759,0,0,1,.794-1.673c-2.774-.308-5.574-.71-5.574-5.484A3.762,3.762,0,0,1,5.678,9.074,4.689,4.689,0,0,1,5.807,5.7c1.037-.323,3.425,1.34,3.425,1.34a11.725,11.725,0,0,1,6.234,0S17.853,5.377,18.89,5.7a4.687,4.687,0,0,1,.129,3.37A3.858,3.858,0,0,1,20.3,12c0,4.79-2.923,5.172-5.7,5.484a2.935,2.935,0,0,1,.844,2.3c0,1.673-.015,3.742-.015,4.149,0,.323.228.715.859.6a12.329,12.329,0,0,0,8.328-11.862A12.17,12.17,0,0,0,12.15.562ZM4.824,17.681c-.065.05-.05.164.035.258s.194.114.258.05.05-.164-.035-.258S4.889,17.616,4.824,17.681Zm-.536-.4c-.035.065.015.144.114.194a.148.148,0,0,0,.213-.035c.035-.065-.015-.144-.114-.194C4.4,17.214,4.323,17.229,4.288,17.279ZM5.9,19.046c-.079.065-.05.213.065.308.114.114.258.129.323.05s.035-.213-.065-.308C6.11,18.981,5.961,18.966,5.9,19.046Zm-.566-.73c-.079.05-.079.179,0,.293s.213.164.278.114a.226.226,0,0,0,0-.308C5.539,18.3,5.41,18.251,5.331,18.316Z" transform="translate(0 -0.563)"/></svg>