<svg xmlns="http://www.w3.org/2000/svg" xmlns:xlink="http://www.w3.org/1999/xlink" width="211.666" height="211.666" viewBox="0 0 211.666 211.666"><defs><style>.a{fill:none;}.b{fill:#ff0;}.c{fill:#fa08da;}.d{clip-path:url(#a);}.e{fill:aqua;}</style><clipPath id="a"><rect class="a" width="211.666" height="211.666"/></clipPath></defs><path class="b" d="M109.561,189.347l-63.6-63.6,8.25-8.25,43.681,43.681v-93.2h11.667Z" transform="translate(-10.677 -15.793)"/><path class="c" d="M158.575,171H146.908V49.642l63.6,63.6-8.25,8.25L158.575,77.808Z" transform="translate(-34.127 -11.532)"/><g class="d"><path class="e" d="M105.833,211.666A105.833,105.833,0,1,1,211.666,105.833,105.953,105.953,0,0,1,105.833,211.666m0-200A94.166,94.166,0,1,0,200,105.833a94.273,94.273,0,0,0-94.166-94.166"/></g></svg>