<svg xmlns="http://www.w3.org/2000/svg" width="41.937" height="43.34" viewBox="0 0 41.937 43.34"><defs><style>.a{fill:#e4e4e4;}</style></defs><g transform="translate(85.046 89.391)"><g transform="translate(-85.046 -89.391)"><path class="a" d="M-43.131-65.453q0,7.137,0,14.274c0,2.433-.805,3.313-3.233,3.46q-13.726.835-27.453,1.642c-.509.03-1.021.026-1.532.022a2.922,2.922,0,0,1-2.379-1.159q-3.075-3.94-6.122-7.9a5.929,5.929,0,0,1-1.2-3.76c.025-8.333.012-16.667.014-25A9.987,9.987,0,0,1-85-85a2.59,2.59,0,0,1,2.571-2.512q9.249-.691,18.5-1.345c2.279-.165,4.56-.305,6.836-.5A6.56,6.56,0,0,1-52.5-88c2.653,1.925,5.346,3.8,8.053,5.644a2.835,2.835,0,0,1,1.342,2.629C-43.162-74.97-43.131-70.211-43.131-65.453Zm-17.9-13.266v0c-4.483.266-8.966.525-13.448.8-1.646.1-1.876.368-1.876,2.021q0,12.18,0,24.36c0,.242,0,.484.013.726a1.364,1.364,0,0,0,1.264,1.425,10.039,10.039,0,0,0,1.686.017c3.436-.189,6.872-.394,10.308-.589,5.02-.286,10.041-.562,15.061-.856,1.511-.089,1.984-.575,1.985-2.045q.011-12.5,0-25.005c0-1.3-.42-1.691-1.707-1.618Q-54.384-79.109-61.027-78.719Zm12.072-3.7a5.559,5.559,0,0,0-.541-.573c-1.3-.948-2.633-1.86-3.913-2.837a5.294,5.294,0,0,0-3.765-1.1q-9.443.7-18.889,1.356c-1.42.1-2.842.186-4.257.327a3,3,0,0,0-.891.419,3.481,3.481,0,0,0,.524.737c.95.789,1.941,1.53,2.893,2.315a4.156,4.156,0,0,0,3.068.924c6.864-.429,13.73-.822,20.6-1.232C-52.48-82.18-50.83-82.3-48.955-82.421Z" transform="translate(85.046 89.391)"/><path class="a" d="M-2.317,22.247c-.136-.863.2-1.353.961-1.436.991-.108,1.188-.616,1.178-1.552C-.229,14.449-.2,9.638-.2,4.826V3.907l-2.03-.226a1.427,1.427,0,0,1,1.3-1.9c1.982-.168,3.967-.313,5.953-.4.264-.011.625.341.807.614Q9.644,7.739,13.42,13.5c.144.219.3.431.564.813V2.871L11.964,2.6c-.147-.891.2-1.536,1.025-1.612,2-.187,4.01-.281,6.04-.414.2.655.163,1.2-.388,1.482a7.945,7.945,0,0,1-1.6.425v.889c0,5.618-.01,11.235.015,16.852a.975.975,0,0,1-.753,1.122c-.385.114-.748.3-1.135.41a2.862,2.862,0,0,1-3.481-1.117q-1.679-2.511-3.312-5.052C6.645,12.9,4.928,10.2,3.091,7.338V19.8l2.5.6c-.144.981-.61,1.4-1.711,1.5-1.125.1-2.254.137-3.381.2Z" transform="translate(15.684 13.937)"/></g></g></svg>