<svg xmlns="http://www.w3.org/2000/svg" width="43.355" height="43.129" viewBox="0 0 43.355 43.129"><defs><style>.a{fill:#e4e4e4;}</style></defs><path class="a" d="M41.82,4.654,32.9.36a2.7,2.7,0,0,0-3.08.524L12.727,16.474,5.284,10.823a1.8,1.8,0,0,0-2.305.1L.591,13.1a1.806,1.806,0,0,0,0,2.672l6.454,5.889L.589,27.548a1.806,1.806,0,0,0,0,2.672l2.39,2.17a1.8,1.8,0,0,0,2.305.1l7.443-5.651,17.089,15.59a2.7,2.7,0,0,0,3.078.524l8.927-4.294a2.71,2.71,0,0,0,1.532-2.442V7.1a2.71,2.71,0,0,0-1.536-2.442ZM32.524,31.5,19.557,21.658l12.967-9.842V31.5Z" transform="translate(0 -0.093)"/></svg>