<svg xmlns="http://www.w3.org/2000/svg" width="38.344" height="46.013" viewBox="0 0 38.344 46.013">
  <path id="Path_33" data-name="Path 33" d="M8.752,2A5.778,5.778,0,0,0,3,7.752v34.51a5.778,5.778,0,0,0,5.752,5.752H35.593a5.778,5.778,0,0,0,5.752-5.752V7.752A5.778,5.778,0,0,0,35.593,2Zm0,3.834H35.593A1.894,1.894,0,0,1,37.51,7.752v34.51a1.894,1.894,0,0,1-1.917,1.917H8.752a1.894,1.894,0,0,1-1.917-1.917V7.752A1.894,1.894,0,0,1,8.752,5.834Zm9.586,3.834A3.834,3.834,0,1,0,22.172,13.5,3.836,3.836,0,0,0,18.338,9.669Zm0,7.669a7.677,7.677,0,0,0-7.669,7.669H26.007A7.677,7.677,0,0,0,18.338,17.338Zm11.5-3.834v3.834h3.834V13.5Zm0,7.669v3.834h3.834V21.172ZM10.669,28.841v3.834H33.675V28.841Zm0,7.669v3.834H33.675V36.51Z" transform="translate(-3 -2)" fill="#868686"/>
</svg>
