<svg xmlns="http://www.w3.org/2000/svg" width="59.79" height="44.843" viewBox="0 0 59.79 44.843"><defs><style>.a{fill:#e4e4e4;}</style></defs><path class="a" d="M59.79,25.922v2c-.02.11-.042.217-.055.324-.1.872-.167,1.746-.309,2.611A21.582,21.582,0,0,1,56.5,38.69a22.043,22.043,0,0,1-9.081,8.371,20.981,20.981,0,0,1-7.005,2.1c-.541.065-1.084.122-1.624.182h-21c-.107-.02-.212-.05-.319-.06a17.668,17.668,0,0,1-6.1-1.49,18.742,18.742,0,0,1-9.444-9.128,18.181,18.181,0,0,1-1.744-5.9L0,31.261V29.318a2.842,2.842,0,0,0,.057-.324,18.151,18.151,0,0,1,1.148-5.419,18.82,18.82,0,0,1,9.312-10.411,18,18,0,0,1,7.294-1.918,19.925,19.925,0,0,1,3.744.177.468.468,0,0,0,.354-.117A22.167,22.167,0,0,1,28.034,6.8a21.158,21.158,0,0,1,7.038-2.113c.583-.067,1.163-.125,1.744-.184H38.61c.115.017.234.04.349.052.889.107,1.781.174,2.661.324a20.852,20.852,0,0,1,7.656,2.955,22.147,22.147,0,0,1,8.269,9.25,21.824,21.824,0,0,1,2.068,7.13c.065.57.12,1.141.179,1.711M26.358,12.968c.037.05.047.072.062.08a24,24,0,0,1,3.513,2.16.37.37,0,0,0,.329-.025A13.648,13.648,0,0,1,48.615,18.4,13.434,13.434,0,0,1,51.32,29.208a13.988,13.988,0,0,1-3.313,7.128A13.243,13.243,0,0,1,35.755,40.9a12.866,12.866,0,0,1-7.688-3.9c-2.735-2.81-5.491-5.6-8.234-8.4a2.22,2.22,0,0,0-1.3-.74,2.058,2.058,0,0,0-2.152,1.2,1.955,1.955,0,0,0,.461,2.362c3.057,3.054,6.089,6.133,9.143,9.193a15.011,15.011,0,0,0,1.679,1.45,15.9,15.9,0,0,0,7.474,2.925,17.734,17.734,0,0,0,16.33-6.475A17.97,17.97,0,0,0,55.4,29.37a18.219,18.219,0,0,0-.162-5.879A17.6,17.6,0,0,0,51.2,15.078a17.414,17.414,0,0,0-15.132-6.2,16.6,16.6,0,0,0-6.579,1.968,17.344,17.344,0,0,0-3.127,2.118M24.883,45.083l-.249-.234c-1.248-1.2-2.506-2.392-3.742-3.61a1,1,0,0,0-.8-.341,14.932,14.932,0,0,1-3.737-.249A10.709,10.709,0,0,1,8.926,26.5a10.538,10.538,0,0,1,11.582-6.687,10.083,10.083,0,0,1,5.665,2.982c1.918,2.013,3.891,3.966,5.83,5.957a1.725,1.725,0,0,0,1.557.573,1.962,1.962,0,0,0,1.7-1.285,1.923,1.923,0,0,0-.431-2.1c-2.033-2.093-4.018-4.24-6.133-6.246A13.721,13.721,0,0,0,14.407,16.3,14.663,14.663,0,0,0,4.644,33.533,14.547,14.547,0,0,0,18.822,45.1h5.727c.095,0,.189-.01.334-.017" transform="translate(0 -4.5)"/></svg>