<svg xmlns="http://www.w3.org/2000/svg" width="52.6" height="51.166" viewBox="0 0 52.6 51.166"><defs><style>.a{fill:#3fa9f5;}</style></defs><path class="a" d="M41.418-65.872H7.991a9.587,9.587,0,0,0-9.586,9.586v31.992a9.587,9.587,0,0,0,9.586,9.588H41.418a9.588,9.588,0,0,0,9.588-9.588V-56.286A9.587,9.587,0,0,0,41.418-65.872ZM15.978-38.59c-.909,0-1.219-.04-1.854-.04v9.18c0,.2-.08.277-.274.277H10.159c-.2,0-.274-.072-.274-.271V-55.161h0c0-.159.335-.277.536-.277,1.54-.08,3.8-.12,6.164-.12,6.628,0,9.205,3.634,9.205,8.288C25.786-41.2,21.382-38.59,15.978-38.59ZM33.2-28.808a10.458,10.458,0,0,1-4.9-1.028c-.159-.078-.191-.2-.191-.394v-3.507c0-.239.115-.319.273-.2a8.807,8.807,0,0,0,4.811,1.42c1.894,0,2.683-.8,2.683-1.855,0-.869-.55-1.618-2.957-2.882C29.524-38.88,28.1-40.53,28.1-43.3c0-3.078,2.405-5.643,6.586-5.643a11.139,11.139,0,0,1,4.289.669.523.523,0,0,1,.239.478v3.276c0,.2-.12.319-.359.239a8.55,8.55,0,0,0-4.168-1.028l.011,0c-1.894,0-2.525.947-2.525,1.736,0,.867.43,1.458,2.957,2.761,3.749,1.817,4.93,3.55,4.93,6.114C40.064-30.864,37.147-28.808,33.2-28.808Z" transform="translate(1.595 65.872)"/><path class="a" d="M10.552-57.025c-.947,0-1.854.038-2.289.08V-47.7l.006-.014c.55.038.985.038,1.937.038,2.8,0,5.419-.985,5.419-4.772C15.625-55.477,13.746-57.025,10.552-57.025Z" transform="translate(7.45 71.127)"/></svg>