<svg xmlns="http://www.w3.org/2000/svg" width="52.6" height="52.476" viewBox="0 0 52.6 52.476"><defs><style>.a{fill:#8cc63f;}</style></defs><path class="a" d="M84.618-66.283H51.191A9.586,9.586,0,0,0,41.6-56.7v33.3a9.586,9.586,0,0,0,9.586,9.588H84.618a9.588,9.588,0,0,0,9.588-9.588V-56.7A9.587,9.587,0,0,0,84.618-66.283ZM67.228-49.641H60.641v22.071c0,.2-.08.319-.319.319H56.657c-.234,0-.319-.078-.319-.319l.008-22.081H49.72c-.2,0-.276-.08-.236-.319l.473-3.306c.038-.2.118-.277.319-.277H66.831c.237,0,.319.08.355.319l.319,3.274C67.543-49.722,67.427-49.641,67.228-49.641Zm18.53,22.387H81.1a.364.364,0,0,1-.394-.237q-3.218-4.351-6.307-8.794v8.756c0,.2-.04.276-.277.276H70.42c-.277,0-.319-.078-.319-.319V-53.316c0-.116.038-.237.276-.237h3.744a.251.251,0,0,1,.277.22.345.345,0,0,1,0,.057l0,15.021,6.031-8.166c.159-.2.2-.274.394-.274H84.85c.238,0,.319.159.159.354-.947,1.221-5.284,6.585-6.7,8.32a.251.251,0,0,0,0,.237l7.651,10.211C86.035-27.413,85.995-27.254,85.757-27.254Z" transform="translate(-41.605 66.283)"/></svg>