<svg xmlns="http://www.w3.org/2000/svg" width="46.023" height="46.013" viewBox="0 0 46.023 46.013"><defs><style>.a{fill:#868686;}</style></defs><path class="a" d="M23.012,13.447a11.8,11.8,0,1,0,11.8,11.8A11.779,11.779,0,0,0,23.012,13.447Zm0,19.467a7.67,7.67,0,1,1,7.67-7.67,7.684,7.684,0,0,1-7.67,7.67ZM38.043,12.965a2.752,2.752,0,1,1-2.752-2.752A2.745,2.745,0,0,1,38.043,12.965Zm7.813,2.793c-.175-3.686-1.016-6.951-3.717-9.641S36.185,2.584,32.5,2.4c-3.8-.216-15.185-.216-18.984,0-3.676.175-6.941,1.016-9.641,3.707S.341,12.061.156,15.747c-.216,3.8-.216,15.185,0,18.984.175,3.686,1.016,6.951,3.717,9.641s5.955,3.532,9.641,3.717c3.8.216,15.185.216,18.984,0,3.686-.175,6.951-1.016,9.641-3.717s3.532-5.955,3.717-9.641c.216-3.8.216-15.175,0-18.974Zm-4.908,23.05a7.765,7.765,0,0,1-4.374,4.374c-3.029,1.2-10.216.924-13.563.924s-10.545.267-13.563-.924a7.765,7.765,0,0,1-4.374-4.374c-1.2-3.029-.924-10.216-.924-13.563S3.883,14.7,5.074,11.681A7.765,7.765,0,0,1,9.448,7.307c3.029-1.2,10.216-.924,13.563-.924s10.545-.267,13.563.924a7.765,7.765,0,0,1,4.374,4.374c1.2,3.029.924,10.216.924,13.563S42.15,35.789,40.949,38.807Z" transform="translate(0.005 -2.238)"/></svg>