<svg xmlns="http://www.w3.org/2000/svg" width="50.926" height="49.654" viewBox="0 0 50.926 49.654"><defs><style>.a{fill:#868686;}</style></defs><path class="a" d="M17.034,40.544c0,.205-.236.37-.534.37-.339.031-.575-.133-.575-.37,0-.205.236-.37.534-.37C16.767,40.143,17.034,40.307,17.034,40.544Zm-3.193-.462c-.072.205.133.441.441.5a.482.482,0,0,0,.637-.205c.062-.205-.133-.441-.441-.534A.527.527,0,0,0,13.84,40.082Zm4.538-.175c-.3.072-.5.267-.472.5.031.205.3.339.606.267s.5-.267.472-.472S18.676,39.876,18.379,39.907ZM25.134.562C10.894.562,0,11.374,0,25.615a25.741,25.741,0,0,0,17.4,24.56c1.314.236,1.776-.575,1.776-1.242,0-.637-.031-4.148-.031-6.3,0,0-7.187,1.54-8.7-3.06,0,0-1.17-2.988-2.854-3.758,0,0-2.351-1.612.164-1.581a5.42,5.42,0,0,1,3.963,2.649c2.249,3.963,6.017,2.824,7.485,2.146a5.707,5.707,0,0,1,1.643-3.46c-5.739-.637-11.53-1.468-11.53-11.345a7.781,7.781,0,0,1,2.423-6.047,9.7,9.7,0,0,1,.267-6.972c2.146-.667,7.084,2.772,7.084,2.772a24.256,24.256,0,0,1,12.9,0s4.939-3.45,7.084-2.772a9.7,9.7,0,0,1,.267,6.972c1.643,1.817,2.649,3.234,2.649,6.047,0,9.908-6.047,10.7-11.787,11.345a6.072,6.072,0,0,1,1.745,4.764c0,3.46-.031,7.742-.031,8.584,0,.667.472,1.479,1.776,1.242A25.5,25.5,0,0,0,50.926,25.615C50.926,11.374,39.375.562,25.134.562ZM9.98,35.975c-.133.1-.1.339.072.534.164.164.4.236.534.1.133-.1.1-.339-.072-.534C10.349,35.913,10.113,35.841,9.98,35.975Zm-1.109-.832c-.072.133.031.3.236.4a.306.306,0,0,0,.441-.072c.072-.133-.031-.3-.236-.4C9.107,35.009,8.943,35.04,8.871,35.143ZM12.2,38.8c-.164.133-.1.441.133.637.236.236.534.267.667.1.133-.133.072-.441-.133-.637C12.639,38.665,12.331,38.634,12.2,38.8Zm-1.17-1.509c-.164.1-.164.37,0,.606s.441.339.575.236a.468.468,0,0,0,0-.637C11.458,37.258,11.191,37.155,11.027,37.289Z" transform="translate(0 -0.563)"/></svg>