<svg xmlns="http://www.w3.org/2000/svg" width="45.069" height="45.068" viewBox="0 0 45.069 45.068">
  <path id="Icon_awesome-linkedin-in" data-name="Icon awesome-linkedin-in" d="M10.088,45.069H.744V14.979h9.344ZM5.411,10.875a5.437,5.437,0,1,1,5.411-5.463A5.457,5.457,0,0,1,5.411,10.875ZM45.059,45.069H35.735V30.421c0-3.491-.07-7.968-4.858-7.968-4.858,0-5.6,3.793-5.6,7.716v14.9H15.941V14.979H24.9v4.1h.131a9.818,9.818,0,0,1,8.841-4.859c9.456,0,11.195,6.227,11.195,14.316V45.069Z" transform="translate(0 -0.001)" fill="#868686"/>
</svg>
