<svg xmlns="http://www.w3.org/2000/svg" width="43.139" height="43.143" viewBox="0 0 43.139 43.143"><defs><style>.a{fill:#e4e4e4;}</style></defs><path class="a" d="M43.134,3.343V1.44a1.455,1.455,0,0,1-1.021-.424A1.455,1.455,0,0,1,41.693,0H39.786A1.448,1.448,0,0,1,38.27,1.372,1.45,1.45,0,0,1,36.9,0H34.99a1.447,1.447,0,0,1-1.533,1.357A1.453,1.453,0,0,1,32.1,0H30.2a1.451,1.451,0,0,1-1.519,1.375A1.453,1.453,0,0,1,27.3,0H25.4a1.448,1.448,0,0,1-1.517,1.375A1.453,1.453,0,0,1,22.508,0H20.6a1.447,1.447,0,0,1-1.533,1.357A1.453,1.453,0,0,1,17.715,0h-1.9a1.428,1.428,0,0,1-1.484,1.391A1.444,1.444,0,0,1,12.931,0h-1.9A1.448,1.448,0,0,1,9.509,1.372,1.45,1.45,0,0,1,8.136,0h-1.9a1.443,1.443,0,0,1-1.5,1.391A1.443,1.443,0,0,1,3.343,0h-1.9a1.449,1.449,0,0,1-.422,1.019A1.455,1.455,0,0,1,0,1.44v1.9a1.445,1.445,0,0,1,1.391,1.5A1.439,1.439,0,0,1,0,6.231V8.138a1.443,1.443,0,0,1,1.391,1.5A1.44,1.44,0,0,1,0,11.026v1.9A1.446,1.446,0,0,1,1.44,14.375,1.445,1.445,0,0,1,0,15.82v1.9A1.444,1.444,0,0,1,1.44,19.168,1.443,1.443,0,0,1,0,20.613v1.9a1.444,1.444,0,0,1,1.391,1.5A1.443,1.443,0,0,1,0,25.406v1.907A1.443,1.443,0,0,1,1.44,28.756,1.444,1.444,0,0,1,0,30.2v1.907A1.441,1.441,0,0,1,1.386,33.6,1.44,1.44,0,0,1,0,34.993V36.9A1.444,1.444,0,0,1,1.44,38.347,1.443,1.443,0,0,1,0,39.79V41.7A1.448,1.448,0,0,1,1.439,43.14h1.9a1.448,1.448,0,0,1,2.89,0H8.14a1.447,1.447,0,0,1,2.89,0h1.9a1.448,1.448,0,0,1,2.892,0h1.9a1.445,1.445,0,0,1,2.888,0h1.907a1.447,1.447,0,0,1,2.89,0h1.9a1.449,1.449,0,0,1,2.893,0h1.9a1.449,1.449,0,0,1,2.893,0h1.9a1.444,1.444,0,0,1,2.886,0h1.9A1.439,1.439,0,0,1,43.134,41.7V39.792a1.446,1.446,0,0,1,0-2.886V35a1.447,1.447,0,0,1,0-2.89V30.2a1.448,1.448,0,0,1,0-2.89V25.406a1.447,1.447,0,0,1,0-2.89v-1.9a1.448,1.448,0,0,1,0-2.89v-1.9a1.447,1.447,0,0,1,0-2.89v-1.9a1.447,1.447,0,0,1,0-2.888v-1.9a1.447,1.447,0,0,1,0-2.89Zm-7.311,17.68L24.315,32.211a20.1,20.1,0,0,0,3.131.4,21.921,21.921,0,0,0,7.7-1.646L34.1,35.9a13.621,13.621,0,0,1-6.655,1.565c-1.968,0-3.853-.642-5.778-.642a7.076,7.076,0,0,0-3.61.719l-2.086-3.689L27.845,22.1H14.182L11.574,34.337h-5.7l5.939-28H30.668l-1.2,5.654H16.347l-1.123,5.256H36.748l-.924,3.774Z" transform="translate(0.005 0.003)"/></svg>