<svg xmlns="http://www.w3.org/2000/svg" width="44.328" height="44.474" viewBox="0 0 44.328 44.474"><defs><style>.a{fill:#e4e4e4;}</style></defs><g transform="translate(112.418 -172.83)"><g transform="translate(-112.418 172.83)"><path class="a" d="M-71.964,192.885c-.674.712-1.188,1.271-1.72,1.815q-3.974,4.058-7.957,8.105c-1.293,1.313-2.539,2.679-3.917,3.9a12.683,12.683,0,0,1-9.99,3.059.94.94,0,0,0-.88.312c-.4.441-.817.862-1.277,1.345a5.021,5.021,0,0,1-.73-2.9,1.037,1.037,0,0,1,.332-.528q3.625-3.737,7.261-7.463c1.4-1.438,2.8-2.883,4.214-4.307.332-.334.36-.56-.006-.882-.825-.726-.567-.763-1.349.034q-4.74,4.841-9.464,9.7c-.568.581-1.131,1.169-1.685,1.764a.433.433,0,0,1-.609.1,14.871,14.871,0,0,1-5.147-4.965c-.186-.281-.006-.421.158-.589q2.583-2.631,5.163-5.262,3.194-3.251,6.395-6.5c.261-.265.3-.435.02-.728-.876-.91-.682-.8-1.44-.032q-3.4,3.438-6.784,6.883c-1.479,1.5-2.968,3-4.421,4.524a1.134,1.134,0,0,1-1.321.378c-.712-.249-1.428-.492-2.276-.785.536-.567.977-.989,1.356-1.457a1.145,1.145,0,0,0,.257-.742,13.143,13.143,0,0,1,3.915-11.063q4.654-4.645,9.343-9.254c1.133-1.119,2.28-2.223,3.565-3.472a9.213,9.213,0,0,1,.732.945c.055.093-.069.362-.184.477q-2.426,2.435-4.876,4.848c-1.068,1.05-1.08,1.042,0,2.086.534.518,1.078,1.024,1.7,1.619.417-.451.817-.868,1.2-1.3a.648.648,0,0,1,.7-.216,1.738,1.738,0,0,0,2.027-2.062.6.6,0,0,1,.182-.656c.253-.239.48-.5.718-.759a1.482,1.482,0,0,1,1.461-.647,1.7,1.7,0,0,0,1.778-2.2.607.607,0,0,1,.087-.485c.439-.475.9-.927,1.378-1.366,1.406-1.3,3.138-1.4,4.91-1.3,5.59.31,8.756,5.849,7.971,10.247a5.337,5.337,0,0,1-1.584,3.037,6.891,6.891,0,0,0-.564.564,1.61,1.61,0,0,1-1.256.637,1.749,1.749,0,0,0-1.631,1.95.836.836,0,0,1-.186.524c-.265.316-.579.593-.864.894a1.911,1.911,0,0,1-1.588.807,1.728,1.728,0,0,0-1.554,1.861.83.83,0,0,1-.291.783c-.338.32-.649.666-.985.987-.2.19-.21.338-.006.536.763.74,1.527,1.481,2.268,2.24.289.3.449.117.647-.087q2.207-2.263,4.417-4.526c.326-.332.662-.655.975-1,.221-.241.388-.221.619,0A7.227,7.227,0,0,0-71.964,192.885ZM-94.67,208.336a1.632,1.632,0,0,0,.245.081c.115.008.231.008.348.008a10.34,10.34,0,0,0,6.9-2.28c1.973-1.661,3.721-3.587,5.57-5.4.237-.231.055-.38-.1-.534-.682-.678-1.39-1.335-2.041-2.043-.344-.376-.544-.366-.9,0q-4.8,4.873-9.642,9.719C-94.4,208.009-94.511,208.15-94.67,208.336Zm-11.8-11.724.154.051c.138-.13.283-.257.415-.391q1.972-2.008,3.945-4.016,2.836-2.871,5.685-5.728c.267-.267.308-.447.01-.724-.69-.647-1.368-1.309-2.019-2-.3-.316-.482-.259-.761.02-1.307,1.323-2.64,2.62-3.953,3.937a11.238,11.238,0,0,0-3.328,6.7C-106.411,195.174-106.425,195.9-106.472,196.612Zm21.407-11.334a1.589,1.589,0,0,0-1.637,1.629,1.681,1.681,0,0,0,1.653,1.653,1.7,1.7,0,0,0,1.641-1.669A1.59,1.59,0,0,0-85.066,185.278Zm4.083-.779a1.668,1.668,0,0,0,1.633-1.661,1.693,1.693,0,0,0-1.679-1.623,1.616,1.616,0,0,0-1.612,1.667A1.606,1.606,0,0,0-80.982,184.5Zm3.917-7.385a1.28,1.28,0,0,0-1.349,1.293,1.878,1.878,0,0,0,1.782,1.8,1.282,1.282,0,0,0,1.283-1.307A1.8,1.8,0,0,0-77.065,177.113Zm-7.923,4.489A1.218,1.218,0,0,0-86.24,180.3a1.831,1.831,0,0,0-1.817,1.738,1.313,1.313,0,0,0,1.3,1.347A1.826,1.826,0,0,0-84.988,181.6Zm4.384-4.238a1.258,1.258,0,0,0-1.2-1.317,1.769,1.769,0,0,0-1.829,1.772,1.235,1.235,0,0,0,1.313,1.309A1.739,1.739,0,0,0-80.6,177.364Zm6.278,6.419a1.252,1.252,0,0,0-1.262-1.358,1.813,1.813,0,0,0-1.77,1.724,1.258,1.258,0,0,0,1.271,1.349A1.762,1.762,0,0,0-74.327,183.783Zm-5.98,5.912a1.755,1.755,0,0,0,1.746-1.73,1.259,1.259,0,0,0-1.309-1.307,1.811,1.811,0,0,0-1.758,1.736A1.266,1.266,0,0,0-80.306,189.7Zm-10.152-5.179-.067-.127c-.425.223-.868.421-1.269.682-.219.142-.218.376.006.587.4.376.789.757,1.161,1.159.52.562.69.631,1.184-.223a1.765,1.765,0,0,0,.2-.66A1.293,1.293,0,0,0-90.458,184.516Zm6.163,6.246c-.372.19-.757.358-1.109.579a.33.33,0,0,0-.042.577c.5.482.981.985,1.491,1.457a.445.445,0,0,0,.413.061,1.7,1.7,0,0,0,.564-1.647A1.493,1.493,0,0,0-84.294,190.763Z" transform="translate(115.374 -172.83)"/><path class="a" d="M-108.376,187.186a15.721,15.721,0,0,0,2.468.856,2.636,2.636,0,0,1,1.886,1.307,15.1,15.1,0,0,0,5.4,4.977c.164.089.368.3.37.457a7.326,7.326,0,0,0,.819,3.154,1.614,1.614,0,0,1,.055.247c-.528.168-1.042.338-1.56.5-2.169.676-4.344,1.343-6.509,2.037a.664.664,0,0,1-.943-.368,9.819,9.819,0,0,0-4.475-4.247c-.255-.119-.4-.227-.293-.558.906-2.741,1.8-5.487,2.7-8.234A.7.7,0,0,1-108.376,187.186Z" transform="translate(113.616 -158.799)"/><path class="a" d="M-106.442,196.318l-5.976,1.88c.065-.273.093-.443.146-.605.522-1.625,1.052-3.249,1.572-4.874.081-.251.164-.445.479-.283a8.6,8.6,0,0,1,3.777,3.694C-106.431,196.154-106.442,196.193-106.442,196.318Z" transform="translate(112.418 -153.725)"/></g></g></svg>