<svg xmlns="http://www.w3.org/2000/svg" width="43.128" height="43.129" viewBox="0 0 43.128 43.129"><defs><style>.a{fill:#e4e4e4;}</style></defs><path class="a" d="M24.309.178A21.563,21.563,0,1,0,42.95,24.309,21.563,21.563,0,0,0,24.309.178ZM28.75,13.629a1.537,1.537,0,0,0-1.066.449l-8,8-.552-.552-1.156-1.156c7.887-7.864,9.309-7.94,10.775-6.744ZM20.01,22.365l7.979-7.979a1.114,1.114,0,1,1,1.522,1.623l-8.444,7.413Zm.593,1.247-1.977.428a.113.113,0,0,1-.1-.189l1.159-1.159.92.92Zm-5.037-.825,2.106-2.106,1.58,1.578-3.556.766a.133.133,0,0,1-.153-.07.129.129,0,0,1,.023-.167ZM9.014,33.674a.137.137,0,0,1-.124-.149.138.138,0,0,1,.04-.083h0l1.7-1.7,2.2,2.2-3.815-.264Zm4.358-2.257a.41.41,0,0,0-.21.46l.365,1.554a.225.225,0,0,1-.379.21h-.005l-1.678-1.678-.528-.53L17.7,24.679l3.271-.706,1.571,1.571a43.693,43.693,0,0,1-9.165,5.873Zm9.487-6.16h0l-1.508-1.508,8.444-7.413a1.711,1.711,0,0,0,.214-.228C29.74,18.524,26.36,21.939,22.859,25.256Zm6.572-11.609-.005,0A3.274,3.274,0,0,1,33.844,8.82l-2.893,2.9a.214.214,0,0,0,0,.3l2.241,2.241a3.265,3.265,0,0,1-3.761-.616Zm4.633,0a3.08,3.08,0,0,1-.487.392h0L31.406,11.87l2.755-2.755a3.274,3.274,0,0,1-.1,4.532Zm-.18-2.775a.257.257,0,0,0-.1.282.748.748,0,0,1-.1.809.249.249,0,1,0,.383.318,1.242,1.242,0,0,0,.156-1.35.248.248,0,0,0-.349-.059Z" transform="translate(0 0)"/></svg>