<svg xmlns="http://www.w3.org/2000/svg" width="35.029" height="43.155" viewBox="0 0 35.029 43.155"><defs><style>.a{fill:#e4e4e4;}</style></defs><path class="a" d="M12.052,42.322a9.665,9.665,0,0,1-2.236-2.067A27.719,27.719,0,0,1,7.9,37.642a25.276,25.276,0,0,1-3.2-6.534A24.57,24.57,0,0,1,3.37,23.3a14.52,14.52,0,0,1,1.8-7.35,10.388,10.388,0,0,1,3.774-3.921,10.063,10.063,0,0,1,5.1-1.51,8.427,8.427,0,0,1,2.031.27c.521.144,1.15.377,1.923.665.988.377,1.528.611,1.707.665a4.21,4.21,0,0,0,1.438.306,4.3,4.3,0,0,0,1.159-.234c.261-.09.755-.252,1.456-.557.694-.252,1.244-.467,1.68-.629a15,15,0,0,1,1.887-.467,8.906,8.906,0,0,1,2.063-.09,12.238,12.238,0,0,1,3.486.755,9.4,9.4,0,0,1,4.415,3.522,8.845,8.845,0,0,0-1.3.988,11,11,0,0,0-2.21,2.7,9.164,9.164,0,0,0-1.157,4.529,9.275,9.275,0,0,0,1.51,5.14,9.58,9.58,0,0,0,2.757,2.76,7.064,7.064,0,0,0,1.51.809c-.216.674-.453,1.33-.728,1.977a25.5,25.5,0,0,1-2.246,4.151c-.776,1.132-1.387,1.977-1.851,2.534a10.019,10.019,0,0,1-2.121,1.971,4.721,4.721,0,0,1-2.609.784,5.786,5.786,0,0,1-1.858-.228c-.521-.171-1.035-.363-1.538-.58a12.471,12.471,0,0,0-1.626-.611,8.122,8.122,0,0,0-2.092-.264,8.387,8.387,0,0,0-2.085.261,12.951,12.951,0,0,0-1.63.584c-.755.314-1.249.521-1.537.611a8.035,8.035,0,0,1-1.779.314,4.941,4.941,0,0,1-2.67-.809ZM24.369,9.147a6.693,6.693,0,0,1-3.546.784,7.206,7.206,0,0,1,.485-3.661,9.9,9.9,0,0,1,1.8-3.019A9.72,9.72,0,0,1,26.035.987,8.333,8.333,0,0,1,29.432,0a8.169,8.169,0,0,1-.449,3.72,10.671,10.671,0,0,1-1.8,3.163,9.065,9.065,0,0,1-2.85,2.264Z" transform="translate(-3.37 0.001)"/></svg>