<svg xmlns="http://www.w3.org/2000/svg" width="91.889" height="32.141" viewBox="0 0 91.889 32.141"><defs><style>.a{fill:#fff;}</style></defs><path class="a" d="M2.793,0V-31.281h9.625a14.617,14.617,0,0,1,7.38,1.858,12.959,12.959,0,0,1,5.081,5.285,16.3,16.3,0,0,1,1.826,7.788v1.439a16.347,16.347,0,0,1-1.794,7.756,12.848,12.848,0,0,1-5.06,5.264A14.727,14.727,0,0,1,12.482,0ZM9.238-26.061V-5.178h3.115a7,7,0,0,0,5.779-2.471q2-2.471,2.041-7.068v-1.654q0-4.77-1.977-7.229a6.975,6.975,0,0,0-5.779-2.46ZM57.084-14.932a18.884,18.884,0,0,1-1.633,8.1,12.3,12.3,0,0,1-4.673,5.371A12.926,12.926,0,0,1,43.807.43a13.014,13.014,0,0,1-6.939-1.869,12.417,12.417,0,0,1-4.727-5.339,18.343,18.343,0,0,1-1.7-7.981v-1.547a18.784,18.784,0,0,1,1.665-8.132,12.4,12.4,0,0,1,4.705-5.393,12.942,12.942,0,0,1,6.95-1.88,12.942,12.942,0,0,1,6.95,1.88,12.4,12.4,0,0,1,4.705,5.393,18.731,18.731,0,0,1,1.665,8.11ZM50.553-16.35q0-4.92-1.762-7.477a5.741,5.741,0,0,0-5.027-2.557,5.743,5.743,0,0,0-5.006,2.524q-1.762,2.524-1.783,7.4v1.525q0,4.791,1.762,7.434a5.726,5.726,0,0,0,5.07,2.643A5.675,5.675,0,0,0,48.791-7.4q1.74-2.546,1.762-7.423ZM70.189-31.281,78.225-8.594l7.992-22.687h8.465V0H88.215V-8.551l.645-14.76L80.416,0H75.99L67.568-23.289l.645,14.738V0H61.768V-31.281Z" transform="translate(-2.793 31.711)"/></svg>