<svg xmlns="http://www.w3.org/2000/svg" width="94.427" height="78.938" viewBox="0 0 94.427 78.938"><defs><style>.a{fill:#fff;}</style></defs><g transform="translate(159.842 -12.217)"><path class="a" d="M-50.165,122.642h-1.542q-29.832,0-59.664,0c-.341,0-.684.061-1.025.055-.394-.007-.584-.213-.357-.585,1.855-3.033,3.709-6.068,5.605-9.075a1.3,1.3,0,0,1,.961-.455q30.927-.032,61.854-.012a2.663,2.663,0,0,1,.64.162,3.386,3.386,0,0,1-.22.574q-2.667,4.4-5.36,8.783a3.977,3.977,0,0,1-.782.724Z" transform="translate(-21.723 -46.388)"/><path class="a" d="M-92.33,62.192c-1.7,0-3.394-.021-5.09.011a1.111,1.111,0,0,1-1.083-.635q-5.492-9.376-11-18.746-4.919-8.369-9.852-16.73-3.731-6.346-7.444-12.7c-.673-1.153-.662-1.16.71-1.16,3.2,0,6.4.011,9.6-.011a1.2,1.2,0,0,1,1.189.671c2.072,3.554,4.168,7.095,6.255,10.641q3.538,6.012,7.072,12.025,3.731,6.346,7.46,12.694,3.323,5.654,6.651,11.306c.4.682.821,1.355,1.225,2.036.243.41.114.6-.415.6Q-89.689,62.2-92.33,62.192Z" transform="translate(-15.075)"/><path class="a" d="M-130.682,66.128c.485.807.9,1.468,1.285,2.144,1.4,2.452,2.788,4.914,4.2,7.36a.813.813,0,0,1-.012.977c-2.23,3.752-4.418,7.53-6.631,11.292-2.312,3.93-4.643,7.849-6.957,11.778q-3.176,5.4-6.332,10.8c-.942,1.6-1.9,3.2-2.835,4.8a1.192,1.192,0,0,1-1.179.676c-3.178-.034-6.357-.014-9.536-.022-.388,0-.775-.058-1.163-.088a10.74,10.74,0,0,1,.5-1.12q3.349-5.707,6.719-11.4,2.874-4.868,5.753-9.734,2.955-5,5.907-10.009,4.13-6.995,8.262-13.989C-132.06,68.516-131.433,67.421-130.682,66.128Z" transform="translate(0 -24.922)"/><path class="a" d="M-97.1,140.09q12.11,0,24.221.006a2.91,2.91,0,0,1,.648.15,3.779,3.779,0,0,1-.23.629c-1.659,2.876-3.341,5.739-4.983,8.625a1.22,1.22,0,0,1-1.4.735,4.84,4.84,0,0,0-.834-.042q-23.222,0-46.444,0c-.363,0-.728.062-1.09.051a.718.718,0,0,1-.491-.193c-.066-.08.006-.326.083-.46,1.712-2.969,3.437-5.931,5.148-8.9a1.113,1.113,0,0,1,1.091-.612Q-109.239,140.1-97.1,140.09Z" transform="translate(-14.845 -59.108)"/><path class="a" d="M-88.64,23.428c.445-.027.694-.055.943-.055,3.372-.011,6.743-.03,10.115,0a1.131,1.131,0,0,1,.806.483c1.772,2.959,3.505,5.94,5.255,8.912,1.716,2.915,3.445,5.822,5.156,8.739,1.82,3.1,3.62,6.219,5.441,9.323q2.894,4.93,5.812,9.846,1.8,3.041,3.594,6.08c.239.407.11.576-.445.576q-3.8,0-7.6,0c-.838,0-1.678-.039-2.512.014a1.163,1.163,0,0,1-1.193-.672q-1.643-2.833-3.308-5.654-3.142-5.344-6.289-10.687-3.726-6.341-7.447-12.684-3.533-6.007-7.076-12.008C-87.788,24.963-88.161,24.276-88.64,23.428Z" transform="translate(-32.915 -5.149)"/></g></svg>