<?xml version="1.0" encoding="utf-8"?>
<!-- Generator: Adobe Illustrator 25.2.0, SVG Export Plug-In . SVG Version: 6.00 Build 0)  -->
<svg version="1.1" id="Layer_1" xmlns="http://www.w3.org/2000/svg" xmlns:xlink="http://www.w3.org/1999/xlink" x="0px" y="0px"
	 viewBox="0 0 96 32.1" style="enable-background:new 0 0 96 32.1;" xml:space="preserve">
<style type="text/css">
	.st0{fill:#63686B;}
</style>
<path class="st0" d="M13.3,31.7V18.5c0.1-1.1-0.2-2.2-0.8-3.1c-0.6-0.7-1.5-1.1-2.4-1.1c-2.9,0-4.3,2.1-4.3,6.2l-1.3-7.2h1.9
	c0.1-1.3,0.6-2.5,1.5-3.4c1.1-0.8,2.4-1.2,3.7-1.1c2.1-0.1,4.1,0.7,5.5,2.2c1.4,1.7,2.1,3.9,1.9,6.1v14.6H13.3z M0,31.7V9.3h5.1
	L5.7,14v17.7H0z M31.6,32.1c-1.9,0.1-3.7-0.7-4.9-2.1c-1.3-1.7-1.9-3.8-1.8-5.9V9.3h5.7v13.4c-0.1,1.1,0.2,2.1,0.9,3
	c0.6,0.7,1.5,1.1,2.4,1c1.2,0.1,2.4-0.5,3-1.6c0.7-1,1-2.8,1-5.2l1.1,7.5h-1.7c-0.3,1.4-1,2.6-2.1,3.5C34.3,31.7,33,32.2,31.6,32.1
	L31.6,32.1z M38.4,31.9L38,26.6v-3.9h5.7v4l3.1,0.5v4.7L38.4,31.9z M38,25.4V9.3h5.7v14.8L38,25.4z M63.6,32.1
	c-2.8,0-4.9-0.8-6.1-2.3c-1.2-1.6-1.9-4-1.9-7.4V0h5.7v22.2c0,0.8,0.1,1.5,0.3,2.3c0.2,0.6,0.6,1.1,1.1,1.3c0.8,0.3,1.7,0.5,2.5,0.4
	c1.6-0.1,3.2-0.3,4.7-0.8l0.7,5.9c-1.1,0.3-2.3,0.5-3.5,0.7C66,32.1,64.8,32.1,63.6,32.1L63.6,32.1z M49.3,5.3V0H56v5.3H49.3z
	 M89,32.1c-2.8,0-4.9-0.8-6.1-2.3c-1.2-1.6-1.9-4-1.9-7.4V0h5.7v22.2c0,0.8,0.1,1.5,0.3,2.3c0.2,0.6,0.6,1.1,1.1,1.3
	c0.8,0.3,1.7,0.5,2.5,0.4c1.6-0.1,3.2-0.3,4.7-0.8l0.7,5.9c-1.1,0.3-2.3,0.5-3.5,0.7C91.3,32.1,90.2,32.1,89,32.1z M74.6,5.3V0h6.7
	v5.3H74.6z"/>
</svg>
