<svg xmlns="http://www.w3.org/2000/svg" width="146.631" height="33.43" viewBox="0 0 146.631 33.43"><defs><style>.a{fill:#1d1d1d;}</style></defs><path class="a" d="M15.447-17.424a16.868,16.868,0,0,0-2.234-.172q-3.523,0-4.619,2.385V0H2.385V-23.246H8.25l.172,2.771a5.753,5.753,0,0,1,5.178-3.2,6.506,6.506,0,0,1,1.934.279ZM31.26,0a6.9,6.9,0,0,1-.623-2.084A7.513,7.513,0,0,1,24.771.43,8.254,8.254,0,0,1,19.11-1.547a6.357,6.357,0,0,1-2.245-4.984A6.569,6.569,0,0,1,19.6-12.2q2.739-1.977,7.917-2h2.857v-1.332a3.831,3.831,0,0,0-.827-2.578,3.254,3.254,0,0,0-2.61-.967,3.7,3.7,0,0,0-2.46.752,2.554,2.554,0,0,0-.892,2.063H17.381A6.237,6.237,0,0,1,18.627-20a8.237,8.237,0,0,1,3.523-2.7,12.841,12.841,0,0,1,5.113-.978,10.145,10.145,0,0,1,6.821,2.159,7.553,7.553,0,0,1,2.524,6.069V-5.371a11.113,11.113,0,0,0,.924,5.006V0ZM26.125-4.318a5.348,5.348,0,0,0,2.535-.612,4.022,4.022,0,0,0,1.719-1.644v-4h-2.32q-4.662,0-4.963,3.223l-.021.365a2.486,2.486,0,0,0,.816,1.912A3.171,3.171,0,0,0,26.125-4.318ZM47.094-23.246l.193,2.686a8.116,8.116,0,0,1,6.682-3.115,6.745,6.745,0,0,1,5.5,2.17q1.8,2.17,1.848,6.488V0H55.107V-14.867a4.028,4.028,0,0,0-.859-2.868,3.847,3.847,0,0,0-2.857-.892,4.271,4.271,0,0,0-3.932,2.234V0H41.25V-23.246ZM65.055-11.795q0-5.436,2.438-8.658a7.912,7.912,0,0,1,6.671-3.223,7.12,7.12,0,0,1,5.607,2.535V-33H86V0H80.395l-.3-2.471A7.307,7.307,0,0,1,74.121.43,7.891,7.891,0,0,1,67.536-2.8Q65.055-6.037,65.055-11.795Zm6.209.451A9.151,9.151,0,0,0,72.4-6.338,3.711,3.711,0,0,0,75.711-4.6a4.155,4.155,0,0,0,4.061-2.428V-16.2a4.1,4.1,0,0,0-4.018-2.428Q71.264-18.627,71.264-11.344Zm18.584-.494A13.786,13.786,0,0,1,91.18-18a9.751,9.751,0,0,1,3.835-4.189,11.188,11.188,0,0,1,5.812-1.482,10.585,10.585,0,0,1,7.681,2.879,11.554,11.554,0,0,1,3.319,7.82l.043,1.59A12.15,12.15,0,0,1,108.883-2.8,10.38,10.38,0,0,1,100.869.43a10.432,10.432,0,0,1-8.024-3.223q-3-3.223-3-8.766Zm6.209.451A8.666,8.666,0,0,0,97.3-6.327a4.113,4.113,0,0,0,3.566,1.751,4.122,4.122,0,0,0,3.523-1.729q1.268-1.729,1.268-5.532a8.579,8.579,0,0,0-1.268-5.027,4.122,4.122,0,0,0-3.566-1.783A4.055,4.055,0,0,0,97.3-16.876,9.642,9.642,0,0,0,96.057-11.387Zm25.459-11.859.193,2.6a8.169,8.169,0,0,1,6.682-3.029q4.49,0,6.166,3.545a7.982,7.982,0,0,1,6.982-3.545q3.781,0,5.629,2.2t1.848,6.628V0h-6.23V-14.824a4.426,4.426,0,0,0-.773-2.89,3.428,3.428,0,0,0-2.729-.913,3.875,3.875,0,0,0-3.867,2.664L135.438,0h-6.209V-14.8a4.373,4.373,0,0,0-.795-2.922,3.461,3.461,0,0,0-2.707-.9,4.024,4.024,0,0,0-3.824,2.191V0h-6.209V-23.246Z" transform="translate(-2.385 33)"/></svg>