<svg xmlns="http://www.w3.org/2000/svg" width="137.542" height="101.249" viewBox="0 0 137.542 101.249"><defs><style>.a{fill:#152a29;}</style></defs><g transform="translate(-160.803 -24.62)"><path class="a" d="M76.815,3.818c-3.3,1.251-4.427,1.893-7.827,2.374a4.408,4.408,0,0,0-3.112,1.861C57.5,20.4,53.238,36.024,49.486,50.2c-.642,2.63-4.62,1.347-3.946-1.219C49.134,35.51,53.175,20.658,60.649,8.534a.963.963,0,0,0-.93-1.443C55.646,7.764,51.7,9.079,49.486,12.8c-1.412,2.245-5.164-.128-3.5-2.181C52.5,2.5,65.074,3.979,74.826.161,77.264-.8,79.317,2.856,76.815,3.818Z" transform="translate(129.938 24.619)"/><path class="a" d="M105.224,86.039c-1.572,3.015-4.17,8.629-8.18,9.174a5.265,5.265,0,0,1-2.245-.16,2.133,2.133,0,0,0-1.989.609A9.534,9.534,0,0,1,87,99a6.358,6.358,0,0,1-6.191-3.08c-1.443-2.47-1.443-6.448-.609-9.239,1.54-5.1,5.1-13.184,11.933-11.036,5.614,1.828,7.089,7.057,5.2,12.285-.257.642-.481,1.315-.8,1.989-.224.449.417.9.8.545.064,0,.1-.1.16-.1a25.937,25.937,0,0,0,4.266-6.512C102.979,81.515,106.413,83.7,105.224,86.039ZM89.442,93.157c.513-1.187.9-1.347.257-2.374l-.77-1.283a1.98,1.98,0,0,1,1.155-2.791,1.8,1.8,0,0,1,1.925.481.905.905,0,0,0,1.443-.417c.642-2.085.9-3.528.481-4.779a3.829,3.829,0,0,0-4.555-2.406c-3.272,1.155-4.427,5.549-5.325,8.5-.481,1.989-1.123,6.255,1.861,6.833C87.2,95.21,88.544,94.122,89.442,93.157Z" transform="translate(106.726 -26.518)"/><path class="a" d="M163.285,37.887c-3.143,4.523-7.474,12.991-14.018,11.837-2.085-.321-4.683-2.951-5.646-5.39a1.142,1.142,0,0,0-1.668-.545c-.128.032-.16.1-.224.128a1.6,1.6,0,0,0-.706.9,26.775,26.775,0,0,1-4.138,7.956c-1.6,1.893-4.3-.994-2.663-2.855,2.534-3.047,3.946-8.5,5.261-12.286,1.668-4.523,3.015-9.078,4.555-13.633.962-2.951,4.106-12.863,8.983-11.2,3.464,1.187,4.812,6.383,3.08,9.527-2.823,5.261-8.629,8.148-11.74,13.312l-.193.577c-.128.288.321.513.545.353a67.627,67.627,0,0,1,5.742-5.614c1.989-1.54,5.261-2.021,6.512.8,2.085,4.651-3.336,9.431-8.18,11.484a1.1,1.1,0,0,0-.194,1.445l.16.16c1.7,1.861,3.882.417,5.357-1.251a92.539,92.539,0,0,0,5.839-7.764C161.392,33.814,164.664,35.834,163.285,37.887Zm-15.3-13.408a.465.465,0,0,0,.77.481l1.123-1.123c1.508-1.476,3.432-3.208,2.823-5.582-.9-3.528-4.074,4.2-4.459,5.357a6.265,6.265,0,0,0-.257.866Zm.128,14.082c-.257.257.1.706.385.513.866-.609,1.636-1.251,2.31-1.8a9.416,9.416,0,0,0,2.5-2.663c.962-1.893-1.315.032-1.476.224Z" transform="translate(69.996 16.052)"/><path class="a" d="M242.692,51.935c-1.925,3.176-6.64,11.131-11.227,10.393a5.59,5.59,0,0,1-4.138-2.63c-2.406,3.432-5.485,6.191-9.5,5.87-6.93-.642-5.164-10.1-2.47-13.986A32.181,32.181,0,0,1,223,43.755c2.245-1.732,6.031-4.074,8.308-3.464h.064c3.368,1.283,3.753,2.919,2.181,6.8a51.341,51.341,0,0,0-2.663,8.213c-.449,2.085-.321,4.074,1.8,2.919,2.534-1.443,5.133-5.934,6.64-8.34C240.64,47.669,244.072,49.754,242.692,51.935Zm-14.788-1.6c.1-.224,1.925-4.844,2.245-6.127-3.432.449-7.731,4.812-9.719,7.186-1.828,2.149-3.785,5.133-3.5,8.148.128,2.021,1.315,2.567,3.176,1.6,3.882-2.118,6.191-6.865,7.8-10.811Z" transform="translate(16.155 -2.679)"/><path class="a" d="M313.313,29.759c-3.689,7.249-9.655,12.51-16.071,17.322a119.839,119.839,0,0,1-5.806,14.275c-1.508,3.015-5.293,7.025-9.046,4.908-3.753-2.053-3.946-6.351-1.764-9.848,2.951-4.812,7.988-7.923,12.606-11.259a.063.063,0,0,0,.064-.064,2.679,2.679,0,0,0-2.438-3.561,7.83,7.83,0,0,1-4.587-1.925c-5.39-4.523,1.508-13.859,3.176-19.182.77-2.438,4.491-1.251,3.721,1.123-1.155,3.657-3.785,7.667-4.587,11.388-.706,3.561,1.957,5.261,4.908,4.234a6.537,6.537,0,0,0,3.689-3.528c1.893-5.646,3.882-11.293,6.063-16.776.93-2.342,4.651-1.219,3.721,1.123-2.855,7.186-5.068,14.755-7.538,22.262,4.234-3.593,7.923-7.443,10.523-12.51C311.2,25.461,314.467,27.546,313.313,29.759ZM291.019,51.732l-1.187.866c-2.149,1.636-4.683,3.368-5.87,5.9-1.732,3.657,2.727,4.62,4.17.77.738-1.957,1.6-3.978,2.342-6Z" transform="translate(-28.836 14.044)"/><path class="a" d="M56.907,151.457a15.276,15.276,0,0,0-5.838,2.694,11.174,11.174,0,0,1,4.01,10.65c-1.123,7.506-9.527,14.21-17.579,15.333a5.232,5.232,0,0,1-.417,1.027c-3.625,7.827-10.266,18.765-19.888,20.019C9.048,202.268.389,196.848-.03,187.929c-.351-7.507,5.87-12.8,12.9-13.986,2.694-.417,3.625,3.625.962,4.106-3.721.609-8.436,2.694-9.4,6.736-1.379,5.453,3.112,12.446,9.078,12.446,9.334.1,15.656-9.046,19.215-16.648l.257-.385a11.293,11.293,0,0,1-8.661-6.095c-1.283-2.374,2.374-4.363,3.657-1.989a7.392,7.392,0,0,0,4.33,3.721,2.377,2.377,0,0,0,2.983-1.443c2.31-6.063,4.62-12.735,8.18-18.028a.966.966,0,0,0-.642-1.572,13.014,13.014,0,0,0-4.459.032,21.968,21.968,0,0,0-14.755,9.753c-1.476,2.213-4.972.032-3.528-2.245,4.748-7.025,13.6-13.28,22.679-11.806a26.014,26.014,0,0,1,4.266,1.123.53.53,0,0,0,.609,0,17.741,17.741,0,0,1,8.308-4.266C58.543,146.806,59.506,150.912,56.907,151.457ZM48.086,157.1c-4.106,4.876-6.416,12.158-8.821,18.413,5.261-1.7,10.233-6.095,11.388-10.233a7.364,7.364,0,0,0-2.567-8.181Z" transform="translate(160.848 -75.448)"/><path class="a" d="M196.6,205.884c-1.476,3.4-8.373,16.264-14.146,12.735-3.047-1.893-3.047-6.287-1.764-9.24.513-1.187,4.074-7.859,2.663-8.6a3.149,3.149,0,0,0-.577-.257c-2.63,4.459-6.544,8.244-8.308,13.184-.866,2.6-4.972.642-3.689-1.8,2.534-4.779,5.421-8.18,7.956-12.7-5.325-2.63-1.957-10.329,3.464-7.346,1.668.93,2.053,2.791,1.828,4.683l.417.1a4.8,4.8,0,0,1,2.855,2.278c1.828,4.651-2.085,8.533-2.983,12.863-.994,4.876,2.021,1.8,3.464.257a22.765,22.765,0,0,0,4.779-7.443C193.682,202.2,197.692,203.382,196.6,205.884Z" transform="translate(44.988 -105.24)"/><path class="a" d="M260.821,206.449c-3.528,5.1-9.5,12.319-17,9.88-9.014-3.015-4.94-14.629.16-19.535,2.374-2.342,6.576-4.94,9.944-2.791,2.63,1.572,3.272,5.164,2.245,7.859-1.7,4.459-7.474,8.726-12.446,8.019a.817.817,0,0,0-.864,1.186c.385.77,1.123,1.123,2.6,1.379,5.133.93,10.906-4.683,12.67-9.078C259.089,201,262.906,203.433,260.821,206.449Zm-17.1-1.893a.924.924,0,0,0,.642,1.315,6.45,6.45,0,0,0,4.459-1.379A10.031,10.031,0,0,0,252.1,200.8c1.861-3.689-2.342-3.978-4.555-1.861A19.557,19.557,0,0,0,243.724,204.557Z" transform="translate(-1.172 -106.607)"/><path class="a" d="M321.009,183.215c-1.925,4.587-5.036,7.57-9.3,10.009a18.651,18.651,0,0,1-2.727,1.7c-3.882,1.636-8.34.481-10.1-3.432-1.7-3.913.9-8.18,4.62-9.334,2.374-.673,3.24,3.048.9,3.785-4.3,1.283-1.379,6.961,2.213,5.742.8-.321,2.6-.866,3.368-2.117,2.31-3.721-.8-6.063-2.278-9.24-1.091-2.406-1.283-6.416.321-8.6,1.6-2.31,4.779-3.785,7.474-2.213,3.272,1.828,2.534,5.133,1.058,7.956-1.058,2.245-4.394.224-3.272-2.021,1.957-3.85-1.925-2.887-2.374-.706a6.622,6.622,0,0,0,.192,3.625c.77,2.213,2.887,3.85,3.3,6.416a.728.728,0,0,0,1.283.353,12.529,12.529,0,0,0,1.732-3.08C318.346,179.783,322,180.938,321.009,183.215Z" transform="translate(-41.824 -90.077)"/><path class="a" d="M380.209,169.415c-1.925,4.587-5.036,7.57-9.3,10.009a18.647,18.647,0,0,1-2.727,1.7c-3.882,1.636-8.34.481-10.1-3.432-1.7-3.913.9-8.18,4.62-9.334,2.374-.673,3.24,3.047.9,3.785-4.3,1.283-1.379,6.961,2.213,5.742.8-.321,2.6-.866,3.368-2.117,2.31-3.721-.8-6.063-2.278-9.239-1.091-2.406-1.283-6.416.321-8.6,1.6-2.31,4.779-3.785,7.474-2.213,3.3,1.828,2.534,5.133,1.058,7.956-1.058,2.245-4.394.224-3.272-2.021,1.957-3.85-1.925-2.887-2.374-.706a6.622,6.622,0,0,0,.192,3.625c.77,2.213,2.887,3.85,3.3,6.416a.728.728,0,0,0,1.283.353,12.525,12.525,0,0,0,1.732-3.08C377.546,165.982,381.2,167.137,380.209,169.415Z" transform="translate(-82.034 -80.704)"/></g></svg>