<svg xmlns="http://www.w3.org/2000/svg" width="132.652" height="68.445" viewBox="0 0 132.652 68.445"><defs><style>.a{fill:#594129;}.b{fill:#836545;}.c{fill:#ba9e82;}</style></defs><path class="a" d="M-70.794,59.8h13.426c0,1.164.023,2.16-.005,3.154-.053,1.879.126,2.083,2.042,2.094,2.01.011,4.024-.077,6.029.029,1.458.077,1.879-.651,1.893-1.888.013-1.049,0-2.1,0-3.351h13.841c.049,1.318.115,2.636.145,3.955.045,2.014.39,2.307,2.348,1.93,1.72-.33,2.368.191,2.368,1.885,0,4.93-.031,9.862.038,14.791.017,1.321-.386,1.747-1.722,1.7-3.079-.1-3.082-.038-3.089,2.983,0,.106,0,.212,0,.318-.008,2.428.383,2.814,2.887,2.818,3.288.007,6.574,0,9.862.007,2.658.005,2.762-.092,2.753-2.782-.009-2.839.647-3.618-3.371-3.37-.833.05-1.349-.139-1.348-1.076,0-5.354-.021-10.708.041-16.062.005-.4.6-1.121.934-1.128,3.763-.073,7.527-.053,11.291-.017.845.009,1.215.309.812,1.321-.844,2.119.107,3.566,2.36,3.679a30.484,30.484,0,0,0,3.31-.179v57.529H-22.923c0-1.08-.034-2.123.009-3.163.052-1.193-.411-1.77-1.664-1.749q-3.5.062-7,0c-1.173-.021-1.64.486-1.6,1.624.038,1.051.008,2.1.008,3.269H-66.547c0-.763,0-1.487,0-2.212.032-6.842.052-13.684.1-20.527.009-1.319-.474-1.911-1.872-1.909-3.139,0-3.143-.052-3.141-3.134.005-4.775-.013-9.549.045-14.323.016-1.284-.565-1.713-1.72-1.7-1.052.012-2.1,0-3.383,0v-18.5c1.145-.05,2.289-.115,3.435-.147,1.779-.049,2.107-.379,2.139-2.123C-70.914,62.307-70.844,61.055-70.794,59.8Zm21.027,49.325c-3.5,0-7,.017-10.5-.009-.988-.008-1.629.182-1.617,1.38.037,3.767.031,7.533,0,11.3-.008,1.053.475,1.4,1.459,1.375,1.644-.037,3.289-.012,4.934-.012,3.543,0,3.2.272,3.154-3.15-.017-1.308.434-1.949,1.836-1.966,3.211-.041,3.263-.031,3.264,3.228a5.635,5.635,0,0,1,0,.636c-.117.994.354,1.3,1.3,1.268,1.643-.052,3.289-.012,4.933-.017,3.154-.009,3.06.346,3.033-2.976-.013-1.767.39-2.116,2.175-2.118,5.147-.005,10.293.041,15.438-.029,1.55-.021,2.122.645,2.107,2.066,0,.478.038.959-.009,1.432-.129,1.267.447,1.69,1.673,1.647,1.908-.069,3.824-.1,5.728.009,1.524.089,1.9-.537,1.875-1.956-.069-4.774-.028-9.549-.027-14.324,0-2.853,0-2.853-2.813-2.865-2.051-.011-2.266-.227-2.273-2.3,0-.372-.021-.744,0-1.115.068-1.043-.447-1.364-1.442-1.39-2.972-.081-2.971-.113-3.029-3.106,0-.106-.007-.212,0-.318.06-.938-.369-1.345-1.317-1.341q-5.809.03-11.619,0c-1.03-.008-1.422.423-1.4,1.433.038,1.962.012,3.926.013,5.888,0,2.242,0,2.242-2.164,2.246-2.311.005-2.311.005-2.31,2.257,0,.265-.019.532.005.8.142,1.517-.551,2.08-2.055,2.053C-42.869,109.086-46.318,109.13-49.767,109.128ZM-51.9,70.282v.005c-2.6,0-5.2.038-7.8-.017-1.185-.025-1.6.439-1.571,1.6a35.843,35.843,0,0,1-.123,5.551c-.187,1.376.314,1.751,1.478,1.785q.874.024,1.75,0c1.107-.029,1.69.468,1.688,1.607-.005,2.44.016,4.88-.009,7.32a1.734,1.734,0,0,1-1.88,1.891c-.636.023-1.275-.031-1.909.012-1.463.1-1.984-.605-1.945-2.007.058-2.12-.056-4.247.044-6.365.065-1.4-.414-1.875-1.815-1.838-2.508.068-2.508,0-2.359,2.529.019.317,0,.637,0,.955q0,6.763,0,13.525c0,2.118,0,2.118,2.124,2.12,2.347,0,2.347,0,2.348,2.372,0,2.082.292,2.39,2.378,2.394q7.24.014,14.481,0c2.078,0,2.293-.257,1.977-2.283-.265-1.694.389-2.472,2.091-2.485a9.153,9.153,0,0,1,1.113.008c1.343.154,1.915-.328,1.869-1.773-.166-5.342-.261-10.685-.329-16.029-.019-1.394-.893-1.341-1.83-1.308-.913.033-2.039-.285-2.017,1.271.024,1.7.008,3.394.009,5.092,0,4.025-.025,4.031-4.1,3.825-1.126-.057-1.647-.553-1.639-1.666.009-1.751,0-3.5,0-5.251,0-3.746,0-3.773,3.679-3.893,1.014-.033,1.44-.39,1.42-1.416-.038-2.014-.046-4.032,0-6.046.027-1.095-.394-1.521-1.5-1.5C-46.808,70.314-49.355,70.282-51.9,70.282Zm38.422,16.545c0,1.749.107,3.505-.031,5.242-.142,1.785.857,1.855,2.164,1.807,1.23-.045,2.417.23,2.368-1.771-.121-4.871-.041-9.745-.041-14.617,0-2.695-.029-2.724-2.78-2.735-2.118-.007-2.669-.626-2.183-2.711.269-1.16.093-1.883-1.18-2.055-1.832-.247-3.065.418-3.091,1.694-.032,1.588-.012,3.178-.007,4.767.011,3.225-.341,3.15,2.912,3.064,1.365-.036,1.916.572,1.88,1.913C-13.512,83.225-13.476,85.027-13.479,86.827Z" transform="translate(136.598 -59.803)"/><path class="b" d="M-121.8,80.09c.567-.045.931-.1,1.295-.1,2.192-.021,2.191-.017,2.329-2.214a1.5,1.5,0,0,1,1.686-1.517c2.6-.025,5.2-.084,7.8.048a1.908,1.908,0,0,1,1.255,1.375c.1,3.923.06,7.852.06,11.778,0,1.107-.618,1.544-1.643,1.4-1.743-.244-1.868.807-1.893,2.128-.029,1.477.707,1.761,2,1.72,2.492-.077,4.987-.053,7.482-.017,1.243.017,1.871-.472,1.921-1.754a1.914,1.914,0,0,0-1.7-2.27,6.88,6.88,0,0,0-1.271-.02c-.99.019-1.45-.442-1.444-1.45.024-3.979-.017-7.959.046-11.938.036-2.249.622-2.546,3.907-2.172V72.381h11.2c.061.076.175.151.183.236.224,2.432.223,2.407,3.634,2.431a30.109,30.109,0,0,1,3.2.389l.373-3.079h11.842c.081,1.34-.32,3.219,2.242,2.482V90.758c-.633-.044-1.145-.1-1.657-.107a1.613,1.613,0,0,0-1.785,1.786c-.015,3.332.019,6.663.048,10,0,.419.106.839.142,1.259.1,1.19-.379,1.8-1.645,1.712-1.762-.122-2.14.264-2.135,2.041q.02,7.4.033,14.806v1.721c-.791.052-1.457.133-2.124.134-7.163.009-14.328-.035-21.491.041-1.5.016-2.087-.438-1.791-1.891.318-1.567-.521-2-1.863-1.992-1.272.007-2.55.066-3.818-.013-1.5-.094-2.208.463-2.027,2.018a16.021,16.021,0,0,1,.009,1.708H-121.8Zm30.2,7.051-1.2,1.3c-.1-.016-.245.008-.306-.052a1.918,1.918,0,0,0-2.575-.009c-.325.214-.151,1.2-.188,1.831-.016.264.021.529.012.793-.1,3.008-.172,6.016-.305,9.022-.052,1.18.44,1.7,1.592,1.551,1.712-.216,2.293.642,2.234,2.216a1.387,1.387,0,0,0,1.539,1.6c3.761.013,7.524.045,11.283-.05a1.775,1.775,0,0,0,1.217-1.187c.337-2.232.3-2.214,2.717-2.616.427-.072,1.095-.637,1.105-.99.125-4,.245-8.01-.727-11.941a7.772,7.772,0,0,0-.99-1.57,9.647,9.647,0,0,0-.835,2.161c-.1,1.264.068,2.551-.066,3.808-.074.7-.458,1.88-.833,1.934a6.9,6.9,0,0,1-3.637-.259c-1.006-.448-.735-6.522.133-7.407-.011,1.954.017,3.91-.046,5.862-.044,1.315.72,1.432,1.733,1.418.967-.013,1.828-.017,1.791-1.364-.045-1.637.042-3.28-.064-4.91-.024-.379-.6-.724-.918-1.085.109-1.98.263-3.958.272-5.937,0-.245-.756-.7-1.168-.709-3.537-.057-7.077-.076-10.614.021a1.727,1.727,0,0,0-1.183,1.193C-91.741,83.547-91.631,85.346-91.6,87.14Zm4.332,22.318c-2.493,0-4.989-.049-7.48.02-1.25.036-1.791-.413-1.635-1.661.168-1.328-.3-1.961-1.755-1.9-1.364.06-2.013-.76-1.932-2.086.074-1.211.113-2.425.18-3.638.077-1.355-.559-1.921-1.905-1.9-2.386.041-4.775.052-7.162,0-1.2-.028-1.665.486-1.536,1.62.188,1.653-.508,2.387-2.185,2.214-.95-.1-1.284.423-1.328,1.343-.1,2.08-.354,2.313-2.563,2.47-1.246.088-1.552.751-1.535,1.908.052,3.479.054,6.959-.024,10.437-.033,1.445.375,2.045,1.867,2.075,1.061.021,2.131-.081,3.182.023,1.612.161,2.171-.459,2.088-2.075-.089-1.766.338-2.07,2.175-2.072q4.936-.008,9.869-.005c2.614,0,2.872.2,3.07,2.826.072.949.455,1.333,1.377,1.314,1.168-.025,2.338-.06,3.5.011,1.264.077,1.616-.472,1.688-1.684a3.205,3.205,0,0,1,1-2.256,2.042,2.042,0,0,1,3.273,1.933c-.068,1.511.409,2.163,1.98,2.011a24.194,24.194,0,0,1,3.341-.009c1.109.049,1.506-.446,1.489-1.522-.04-2.6-.062-5.2,0-7.8.032-1.295-.528-1.649-1.721-1.62C-82.388,109.494-84.829,109.454-87.271,109.458Zm-30.857-18.594c0,1.908.052,3.817-.015,5.724-.06,1.706,1.092,1.475,2.151,1.5,1.288.033,1.458-.8,1.418-1.792-.088-2.214-.223-4.426-.271-6.641-.048-2.29.287-2.619,2.63-2.707.839-.031,1.483-.175,1.477-1.2-.007-1.379.025-2.757-.008-4.134-.028-1.18-.811-1.454-1.836-1.475s-1.47.4-1.417,1.421c.08,1.522-.577,2.244-2.181,2.135-1.4-.1-2.112.506-1.978,2.083C-118.016,87.462-118.126,89.169-118.128,90.864Z" transform="translate(121.799 -55.701)"/><path class="b" d="M-53.368,100.589c3.448,0,6.9-.042,10.345.021,1.5.028,2.2-.536,2.055-2.053-.024-.264,0-.531-.005-.8,0-2.252,0-2.252,2.31-2.257,2.165,0,2.165,0,2.164-2.246,0-1.962.025-3.926-.013-5.888-.02-1.01.373-1.441,1.4-1.433q5.809.04,11.619,0c.949,0,1.377.4,1.317,1.341-.007.106,0,.212,0,.318.058,2.993.057,3.025,3.029,3.106,1,.027,1.51.348,1.442,1.39-.024.37,0,.743,0,1.115.007,2.068.222,2.285,2.273,2.3,2.815.012,2.814.012,2.813,2.865,0,4.775-.042,9.55.027,14.324.021,1.418-.35,2.045-1.875,1.956-1.9-.111-3.82-.078-5.728-.009-1.226.044-1.8-.379-1.673-1.647.048-.472.005-.954.009-1.432.015-1.421-.557-2.087-2.107-2.066-5.145.07-10.292.024-15.438.029-1.785,0-2.188.35-2.175,2.118.027,3.322.121,2.967-3.033,2.976-1.644.005-3.29-.035-4.933.017-.943.029-1.414-.275-1.3-1.268a5.635,5.635,0,0,0,0-.636c0-3.259-.053-3.269-3.264-3.228-1.4.017-1.854.658-1.836,1.966.044,3.422.389,3.15-3.154,3.15-1.645,0-3.29-.025-4.934.012-.984.023-1.467-.321-1.459-1.375.028-3.767.035-7.533,0-11.3-.012-1.2.629-1.388,1.617-1.38C-60.371,100.6-56.87,100.587-53.368,100.589Z" transform="translate(140.2 -51.263)"/><path class="b" d="M-54.391,67.705c2.546,0,5.094.032,7.638-.016,1.1-.021,1.523.4,1.5,1.5-.048,2.014-.04,4.032,0,6.046.02,1.026-.406,1.383-1.42,1.416-3.681.119-3.679.147-3.679,3.893,0,1.75.008,3.5,0,5.251-.008,1.113.512,1.609,1.639,1.666,4.072.206,4.1.2,4.1-3.825,0-1.7.015-3.4-.009-5.092-.023-1.556,1.1-1.238,2.017-1.271.937-.033,1.811-.086,1.83,1.308.068,5.344.163,10.687.329,16.029.045,1.445-.527,1.927-1.869,1.773a9.156,9.156,0,0,0-1.113-.008c-1.7.013-2.356.791-2.091,2.485.316,2.026.1,2.282-1.977,2.283q-7.24.006-14.481,0c-2.086,0-2.376-.312-2.378-2.394,0-2.368,0-2.368-2.348-2.372-2.122,0-2.124,0-2.124-2.12q0-6.763,0-13.525c0-.318.016-.638,0-.955-.149-2.531-.149-2.461,2.359-2.529,1.4-.037,1.88.44,1.815,1.838-.1,2.118.015,4.244-.044,6.365-.038,1.4.482,2.108,1.945,2.007.634-.042,1.274.011,1.909-.012a1.734,1.734,0,0,0,1.88-1.891c.025-2.44,0-4.88.009-7.32,0-1.138-.581-1.636-1.688-1.607q-.876.024-1.75,0c-1.164-.033-1.665-.409-1.478-1.785a35.842,35.842,0,0,0,.123-5.551c-.025-1.158.386-1.623,1.571-1.6,2.6.056,5.2.017,7.8.017Zm-.357,23.554a37.533,37.533,0,0,0-3.962.052,1.568,1.568,0,0,0-1.056,1.081,11.458,11.458,0,0,0,.2,3.29c.107.5.716,1.25,1.129,1.271a60.21,60.21,0,0,0,7.291-.011,2.3,2.3,0,0,0,1.644-1.5c.077-1.376.732-3.025-.829-4.079-.265-.179-.719-.1-1.087-.1C-52.527,91.249-53.638,91.257-54.748,91.26Z" transform="translate(139.088 -57.226)"/><path class="b" d="M-27.823,84.331c0-1.8-.034-3.6.012-5.4.036-1.341-.515-1.949-1.88-1.913-3.253.086-2.9.162-2.912-3.064-.005-1.589-.025-3.179.007-4.767.027-1.276,1.259-1.941,3.091-1.694,1.272.172,1.449.9,1.18,2.055-.487,2.084.065,2.7,2.183,2.711,2.75.011,2.78.04,2.78,2.735,0,4.872-.08,9.747.041,14.617.049,2-1.138,1.726-2.368,1.771-1.307.048-2.306-.023-2.164-1.807C-27.717,87.836-27.824,86.08-27.823,84.331Z" transform="translate(150.943 -57.307)"/><path class="c" d="M-88.173,103.067c2.441,0,4.883.038,7.323-.019,1.193-.029,1.753.325,1.721,1.62-.066,2.6-.044,5.2,0,7.8.017,1.076-.379,1.571-1.489,1.522a24.2,24.2,0,0,0-3.341.009c-1.571.151-2.047-.5-1.98-2.011a2.042,2.042,0,0,0-3.273-1.933,3.205,3.205,0,0,0-1,2.256c-.072,1.211-.423,1.761-1.688,1.684-1.164-.07-2.334-.036-3.5-.011-.922.02-1.306-.365-1.377-1.314-.2-2.624-.456-2.826-3.07-2.826q-4.934,0-9.869.005c-1.836,0-2.264.306-2.175,2.072.082,1.616-.476,2.236-2.088,2.075-1.051-.1-2.12,0-3.182-.023-1.491-.031-1.9-.63-1.867-2.075.078-3.478.076-6.958.024-10.436-.017-1.157.289-1.82,1.535-1.908,2.209-.158,2.463-.39,2.563-2.47.044-.919.378-1.44,1.328-1.343,1.677.172,2.374-.561,2.185-2.214-.129-1.134.337-1.648,1.536-1.62,2.387.056,4.776.045,7.162,0,1.347-.023,1.982.544,1.905,1.9-.068,1.213-.106,2.427-.18,3.638-.081,1.325.568,2.145,1.932,2.086,1.455-.065,1.924.568,1.755,1.9-.157,1.249.385,1.7,1.635,1.661C-93.162,103.021-90.667,103.07-88.173,103.067Z" transform="translate(122.702 -49.312)"/><path class="c" d="M-87.745,85.267c-.868.885-1.138,6.959-.133,7.407a6.9,6.9,0,0,0,3.637.259c.375-.054.759-1.235.833-1.934.134-1.256-.034-2.543.066-3.808a9.647,9.647,0,0,1,.835-2.161,7.772,7.772,0,0,1,.99,1.57c.973,3.931.852,7.942.727,11.941-.011.353-.678.918-1.105.99-2.421.4-2.38.385-2.717,2.616a1.775,1.775,0,0,1-1.217,1.187c-3.759.1-7.522.064-11.283.05a1.387,1.387,0,0,1-1.539-1.6c.058-1.574-.523-2.432-2.234-2.216-1.152.146-1.644-.372-1.592-1.551.133-3.006.21-6.014.305-9.022.009-.264-.028-.529-.012-.793.037-.634-.137-1.617.188-1.831a1.918,1.918,0,0,1,2.575.009c.061.06.2.036.306.052l.49,6.1.65.279,1.917-.009.637-.28.317-.314.442-1.027,0-.507V87.365l-.013-1.14-.446-.691-2.8-.4c-.028-1.794-.138-3.593-.028-5.379a1.727,1.727,0,0,1,1.183-1.193c3.537-.1,7.077-.078,10.614-.021.411.007,1.169.463,1.168.709-.009,1.98-.163,3.958-.272,5.937Zm-3.82,10.774c-.582,0-1.164,0-1.746,0-1.949,0-2.508.561-2.374,2.4.11,1.489.988,2.059,2.672,1.908,1.2-.109,2.431.07,3.612-.11.653-.1,1.685-.6,1.767-1.053.381-2.1.326-3.4-2.188-3.154C-90.4,96.088-90.984,96.041-91.565,96.041Z" transform="translate(128.112 -53.695)"/><path class="c" d="M-119.019,88.948c0-1.7.11-3.4-.032-5.086-.134-1.578.578-2.179,1.978-2.083,1.6.109,2.261-.613,2.181-2.135-.053-1.018.4-1.444,1.417-1.421s1.808.3,1.836,1.475c.033,1.377,0,2.756.008,4.134.007,1.026-.638,1.17-1.477,1.2-2.343.088-2.677.417-2.63,2.707.048,2.214.183,4.426.271,6.641.04.994-.13,1.826-1.418,1.792-1.059-.027-2.21.2-2.151-1.5C-118.969,92.765-119.021,90.856-119.019,88.948Z" transform="translate(122.692 -53.784)"/><path class="a" d="M-98.745,83.5l2.8.4.446.691c0,.379.009.76.015,1.14q0,1.656,0,3.312c0,.169,0,.338,0,.507q-.221.513-.443,1.027l-.317.314-.637.28-1.916.009-.651-.279-.49-6.1Z" transform="translate(128.941 -52.059)"/><path class="a" d="M-91.363,83.619l2.5-.08c.321.361.894.706.918,1.085.106,1.631.019,3.273.064,4.91.037,1.347-.824,1.351-1.791,1.364-1.012.013-1.777-.1-1.733-1.418C-91.346,87.529-91.374,85.573-91.363,83.619Z" transform="translate(131.729 -52.046)"/><path class="a" d="M-56.987,85.459c1.111,0,2.221-.009,3.332,0,.368,0,.821-.074,1.087.1,1.562,1.053.906,2.7.829,4.079a2.3,2.3,0,0,1-1.644,1.5,60.21,60.21,0,0,1-7.291.011c-.413-.021-1.022-.771-1.129-1.271a11.458,11.458,0,0,1-.2-3.29,1.568,1.568,0,0,1,1.056-1.081A37.887,37.887,0,0,1-56.987,85.459Z" transform="translate(141.326 -51.427)"/><path class="a" d="M-93.235,91.729c.581,0,1.168.048,1.743-.009,2.514-.245,2.569,1.055,2.188,3.154-.082.458-1.114.953-1.767,1.053-1.181.18-2.413,0-3.612.11-1.684.151-2.562-.419-2.672-1.908-.134-1.839.425-2.4,2.374-2.4C-94.4,91.73-93.817,91.729-93.235,91.729Z" transform="translate(129.781 -49.383)"/><path class="b" d="M-96.585,88.492q0-1.656,0-3.312Q-96.587,86.836-96.585,88.492Z" transform="translate(130.038 -51.51)"/><path class="b" d="M-96.921,89.085q.223-.513.443-1.027Q-96.7,88.571-96.921,89.085Z" transform="translate(129.929 -50.57)"/><path class="b" d="M-96.486,84.491l-.446-.691Z" transform="translate(129.925 -51.961)"/><path class="b" d="M-99.575,89.077l.651.279Z" transform="translate(129.061 -50.237)"/><path class="b" d="M-97.64,89.349l.637-.28Z" transform="translate(129.694 -50.239)"/></svg>