<?xml version="1.0" encoding="utf-8"?>
<!-- Generator: Adobe Illustrator 25.2.0, SVG Export Plug-In . SVG Version: 6.00 Build 0)  -->
<svg version="1.1" id="Layer_1" xmlns="http://www.w3.org/2000/svg" xmlns:xlink="http://www.w3.org/1999/xlink" x="0px" y="0px"
	 viewBox="0 0 40.8 14.1" style="enable-background:new 0 0 40.8 14.1;" xml:space="preserve">
<style type="text/css">
	.st0{fill:#63686B;}
</style>
<g>
	<path class="st0" d="M5.8,13.9l1.4-5.8c0.1-0.5,0.1-1,0-1.4C7,6.4,6.7,6.3,6.3,6.3C5,6.3,4.1,7.2,3.7,9l0.2-3.1h0.8
		c0.2-0.6,0.5-1.1,1-1.5C6.3,4,6.9,3.9,7.5,3.9c0.9-0.1,1.7,0.3,2.2,0.9c0.4,0.8,0.5,1.7,0.2,2.7l-1.5,6.4H5.8z M0,13.9l2.4-9.8h2.2
		L4.4,6.2l-1.9,7.8H0z M13.8,14.1c-0.8,0-1.6-0.3-1.9-0.9c-0.4-0.7-0.4-1.7-0.1-2.6l1.6-6.5h2.5L14.4,10c-0.1,0.5-0.1,0.9,0.1,1.3
		c0.2,0.3,0.5,0.5,1,0.5c0.5,0,1.1-0.2,1.5-0.7c0.4-0.5,0.7-1.2,1-2.3L17.6,12h-0.8c-0.3,0.6-0.7,1.1-1.3,1.5
		C15,13.9,14.4,14.1,13.8,14.1L13.8,14.1z M16.8,14l0.4-2.4l0.4-1.7h2.5l-0.4,1.7l1.3,0.2l-0.5,2L16.8,14z M17.3,11.1l1.7-7.1h2.5
		L20,10.6L17.3,11.1z M27.9,14.1c-1.2,0-2-0.3-2.4-1s-0.4-1.8,0-3.3L27.8,0h2.5l-2.4,9.7c-0.1,0.3-0.1,0.7-0.1,1
		c0,0.3,0.2,0.5,0.4,0.6c0.3,0.1,0.7,0.2,1.1,0.2c0.7,0,1.4-0.1,2.1-0.4L31,13.7c-0.5,0.1-1.1,0.2-1.6,0.3
		C28.9,14.1,28.4,14.1,27.9,14.1L27.9,14.1z M24.4,2.3L25,0h3l-0.6,2.3H24.4z M37.3,14.1c-1.2,0-2-0.3-2.4-1c-0.4-0.7-0.4-1.8,0-3.3
		L37.2,0h2.5l-2.4,9.7c-0.1,0.3-0.1,0.7-0.1,1c0,0.3,0.2,0.5,0.4,0.6c0.3,0.1,0.7,0.2,1.1,0.2c0.7,0,1.4-0.1,2.1-0.4l-0.3,2.6
		c-0.5,0.1-1.1,0.2-1.6,0.3C38.3,14.1,37.8,14.1,37.3,14.1z M33.8,2.3L34.4,0h3l-0.6,2.3H33.8z"/>
</g>
</svg>
