<svg xmlns="http://www.w3.org/2000/svg" width="120.248" height="32.141" viewBox="0 0 120.248 32.141"><defs><style>.a{fill:#feba2e;}</style></defs><path class="a" d="M14.373-11.451H9.238V0H2.793V-31.281H14.416q5.543,0,8.551,2.471a8.527,8.527,0,0,1,3.008,6.982,9.624,9.624,0,0,1-1.386,5.339,9.451,9.451,0,0,1-4.2,3.405L27.156-.3V0H20.238ZM9.238-16.672h5.2a5.323,5.323,0,0,0,3.76-1.235,4.415,4.415,0,0,0,1.332-3.405,4.726,4.726,0,0,0-1.257-3.48,5.223,5.223,0,0,0-3.856-1.268H9.238Zm20.367,8.25a7.173,7.173,0,0,1,1.214-4.018,16.857,16.857,0,0,1,4.458-4.1,21.887,21.887,0,0,1-2.191-3.513,7.778,7.778,0,0,1-.795-3.427,8,8,0,0,1,2.31-5.94,8.449,8.449,0,0,1,6.22-2.288,8.114,8.114,0,0,1,5.747,2.084,6.8,6.8,0,0,1,2.245,5.2q0,3.738-3.781,6.6l-2.406,1.74,5.393,6.273a11.955,11.955,0,0,0,1.268-5.5H54.57q0,6.1-2.814,9.883L56.439,0H49.393L47.781-1.848A14.126,14.126,0,0,1,39.832.43,10.9,10.9,0,0,1,32.4-2.009,8.1,8.1,0,0,1,29.605-8.422ZM40.133-4.555A7.868,7.868,0,0,0,44.365-5.8L38.2-12.934l-.451.322a4.921,4.921,0,0,0-1.912,3.846,4.073,4.073,0,0,0,1.192,3.04A4.242,4.242,0,0,0,40.133-4.555ZM37.855-23.568q0,1.611,1.891,4.061L41.4-20.6a5.617,5.617,0,0,0,1.751-1.59,3.415,3.415,0,0,0,.483-1.848,2.558,2.558,0,0,0-.795-1.869,2.763,2.763,0,0,0-2.041-.795,2.792,2.792,0,0,0-2.138.859A3.2,3.2,0,0,0,37.855-23.568Zm47.588,8.637a18.884,18.884,0,0,1-1.633,8.1,12.3,12.3,0,0,1-4.673,5.371A12.926,12.926,0,0,1,72.166.43a13.014,13.014,0,0,1-6.939-1.869A12.417,12.417,0,0,1,60.5-6.778a18.343,18.343,0,0,1-1.7-7.981v-1.547a18.784,18.784,0,0,1,1.665-8.132,12.4,12.4,0,0,1,4.705-5.393,12.942,12.942,0,0,1,6.95-1.88,12.942,12.942,0,0,1,6.95,1.88,12.4,12.4,0,0,1,4.705,5.393,18.731,18.731,0,0,1,1.665,8.11ZM78.912-16.35q0-4.92-1.762-7.477a5.741,5.741,0,0,0-5.027-2.557,5.743,5.743,0,0,0-5.006,2.524q-1.762,2.524-1.783,7.4v1.525q0,4.791,1.762,7.434a5.726,5.726,0,0,0,5.07,2.643A5.675,5.675,0,0,0,77.15-7.4q1.74-2.546,1.762-7.423ZM98.549-31.281l8.035,22.688,7.992-22.687h8.465V0h-6.467V-8.551l.645-14.76L108.775,0H104.35L95.928-23.289l.645,14.738V0H90.127V-31.281Z" transform="translate(-2.793 31.711)"/></svg>